<?xml version="1.0" encoding="UTF-8" standalone="no"?>
<!--
************* Copyright (c) 2017 Pareto Softare, LLC DBA Simplemaps.com *******************		
************* Free for Commercial Use, full terms at  http://simplemaps.com/resources/svg-license ************
************* Attribution is appreciated! http://simplemaps.com ***************************
-->

<svg
   xmlns:dc="http://purl.org/dc/elements/1.1/"
   xmlns:cc="http://creativecommons.org/ns#"
   xmlns:rdf="http://www.w3.org/1999/02/22-rdf-syntax-ns#"
   xmlns:svg="http://www.w3.org/2000/svg"
   xmlns="http://www.w3.org/2000/svg"
   xmlns:sodipodi="http://sodipodi.sourceforge.net/DTD/sodipodi-0.dtd"
   xmlns:inkscape="http://www.inkscape.org/namespaces/inkscape"
   enable_background="new 145 15 845 545"
   height="545px"
   pretty_print="False"
   style="stroke-linejoin: round; stroke:#000; fill: none;"
   version="1.1"
   viewBox="145 15 845 545"
   width="845px"
   id="svg"
   inkscape:version="0.48.4 r9939"
   sodipodi:docname="us.svg">
  <sodipodi:namedview
     pagecolor="#ffffff"
     bordercolor="#666666"
     borderopacity="1"
     objecttolerance="10"
     gridtolerance="10"
     guidetolerance="10"
     inkscape:pageopacity="0"
     inkscape:pageshadow="2"
     inkscape:window-width="1920"
     inkscape:window-height="1137"
     id="namedview69"
     showgrid="false"
     inkscape:zoom="0.80893016"
     inkscape:cx="817.66365"
     inkscape:cy="409.3738"
     inkscape:window-x="1192"
     inkscape:window-y="118"
     inkscape:window-maximized="1"
     inkscape:current-layer="svg2" />
  <defs
     id="defs4">
    <style
       type="text/css"
       id="style6">path { fill-rule: evenodd; }</style>
  </defs>
  <metadata
     id="metadata8">
    <views
       id="views10">
      <view
         h="589.235294118"
         padding="0"
         w="1000"
         id="view12">
        <proj
           id="laea-usa"
           lat0="45"
           lon0="-100" />
        <bbox
           h="321.97"
           w="589.33"
           x="690.09"
           y="918.69"
           id="bbox15" />
      </view>
    </views>
    <rdf:RDF>
      <cc:Work
         rdf:about="">
        <dc:format>image/svg+xml</dc:format>
        <dc:type
           rdf:resource="http://purl.org/dc/dcmitype/StillImage" />
        <dc:title />
      </cc:Work>
    </rdf:RDF>
  </metadata>
  <path
     inkscape:connector-curvature="0"
     id="MA"
     data-name="Massachusetts"
     data-id="MA"
     d="m 956.31178,153.05085 -0.29118,-0.19412 0,0.29119 0.29118,-0.0971 z m -2.91189,-2.6207 0.67944,-0.29119 0,-0.38825 -0.67944,0.67944 z m 12.03583,-7.57092 -0.0971,-1.35889 -0.19412,-0.7765 0.29119,2.13539 z m -42.41659,-9.9975 -0.67944,0.29119 -5.5326,1.65007 -1.94126,0.67944 -2.23245,0.67944 -0.7765,0.29119 0,0.29119 0.29118,5.04728 0.29119,4.65903 0.29119,4.27078 0.48532,0.29119 1.74714,-0.48532 7.86211,-2.32951 0.19412,0.48531 13.97709,-5.33847 0.0971,0.19413 1.26182,-0.48532 4.4649,-1.74713 4.27078,5.14434 0,0 0.58238,-0.48531 0.29119,-1.45595 -0.0971,2.32952 0,0 0.97063,0 0.29119,1.16475 0.87357,1.65008 0,0 4.56197,-5.5326 3.78546,1.26182 0.87357,-1.94126 6.21204,-3.30015 -2.62071,-5.14435 0.67945,3.30015 -3.20309,2.42658 -3.59133,0.29119 -7.18267,-7.66799 -3.20309,-4.85315 3.20309,-3.39721 -3.30015,-0.19413 -1.35888,-3.20308 -0.0971,-0.19413 -5.53259,6.01791 -12.22996,4.07666 -3.97959,1.26182 0,0 z"
     style="stroke-width:0.97063118000000004;fill:#f9f9f9" />
  <path
     inkscape:connector-curvature="0"
     id="MN"
     data-name="Minnesota"
     data-id="MN"
     d="m 558.54712,73.847349 1.94126,6.891482 4.07665,24.848159 1.94126,9.90044 0.58238,8.73568 2.23246,5.24141 0.48531,4.4649 0.38825,1.45595 -0.0971,0.29119 -3.88252,6.40616 2.52364,4.27078 4.85315,34.16622 0.19413,4.4649 4.85315,-0.29119 19.12144,-1.06769 47.75505,-3.97959 4.7561,-0.48532 0,-0.48531 -1.35889,-7.47386 -5.92085,-3.00896 -4.65903,-4.85315 -7.37679,-4.46491 -2.32952,-0.19412 -3.59133,-2.71777 0.97063,-13.39471 -3.39721,-3.10602 1.16476,-5.43554 6.21204,-5.62966 -1.0677,-11.64757 2.23245,-2.52364 0,0 7.57093,-7.95918 8.63861,-11.065195 3.30015,-2.329514 5.82379,-2.814831 6.11497,-4.561967 -4.07665,0.776505 -2.42658,-1.844199 -9.31806,1.261821 -1.45594,-1.747136 -8.34743,3.397209 -6.69736,-2.814831 -1.84419,-2.232452 -5.33848,0.388253 -3.59133,-1.844199 1.16476,-1.358884 -4.56197,-1.455947 -4.07665,0 -6.50323,2.814831 -1.26182,-1.941263 -10.28869,-1.455947 -3.49427,-8.73568 -0.38826,-2.620705 -4.4649,-1.26182 0.38825,7.47386 -11.8417,0.873568 -14.65653,0.582379 -0.97063,0.09706 z"
     style="stroke-width:0.97063118000000004;fill:#f9f9f9" />
  <path
     inkscape:connector-curvature="0"
     id="MT"
     data-name="Montana"
     data-id="MT"
     d="m 465.65771,72.973781 -32.12789,-2.135389 -23.39221,-2.232451 -23.29515,-2.717768 -14.46241,-1.941262 -23.10102,-3.591336 -11.55051,-1.941262 -25.81879,-4.950219 -2.71777,-0.582379 -4.17371,19.800877 1.8442,3.591335 1.45595,5.532598 -0.87357,0.776505 1.8442,5.047282 2.52364,2.135389 7.18267,12.035829 0.67944,2.03832 2.91189,-0.19412 -3.39721,15.91835 -1.35888,0.38825 -1.8442,5.33847 9.60925,0.67944 0.77651,4.46491 5.43553,13.29765 0.97063,0.7765 3.78546,7.76505 0.97063,-0.7765 8.05624,-0.0971 10.19163,1.0677 2.52364,-3.30015 3.00896,5.43553 0.58238,0.29119 0.0971,-0.58237 1.35888,-9.51219 33.19559,4.07665 26.49823,2.52364 13.97709,1.16476 24.94522,1.45595 1.26182,0.0971 0.29119,0 0.0971,-1.35888 0.29119,-6.69736 0.38825,-8.83274 0.0971,-2.23246 0.19413,-3.88252 1.55301,-30.47782 1.26182,-23.683401 0.0971,-3.882525 -1.8442,-0.09706 z"
     style="stroke-width:0.97063118000000004;fill:#f9f9f9" />
  <path
     inkscape:connector-curvature="0"
     id="ND"
     data-name="North Dakota"
     data-id="ND"
     d="m 556.50879,73.847349 -29.31306,0.582379 -20.48032,-0.09706 -17.56842,-0.388253 -20.57738,-0.776505 -1.0677,-0.09706 -0.0971,3.882525 -1.26182,23.683405 -1.55301,30.47782 -0.19413,3.88252 3.78546,0.19413 42.80484,1.16476 39.50469,-0.29119 16.40367,-0.48532 3.30014,-0.19412 -0.38825,-1.45595 -0.48531,-4.4649 -2.23246,-5.24141 -0.58238,-8.73568 -1.94126,-9.90044 -4.07665,-24.848163 -1.94126,-6.891482 -2.03833,0 z"
     style="stroke-width:0.97063118000000004;fill:#f9f9f9" />
  <path
     inkscape:connector-curvature="0"
     id="HI"
     data-name="Hawaii"
     data-id="HI"
     d="M 416.34965,514.99923 L 413.34069,512.76678 L 410.71999,513.44622 L 411.30237,518.88175 L 407.71103,523.34666 L 410.81705,530.43227 L 411.69062,537.71200 L 415.28195,540.04151 L 417.51441,536.45018 L 421.49399,533.53829 L 426.34715,532.27646 L 431.68562,527.71450 L 426.44421,523.24959 L 426.34711,520.53183 L 416.34961,514.99923 z M 398.68416,507.13712 L 397.22821,505.87530 L 395.86933,507.71950 L 398.68416,507.13712 z M 391.40443,502.96340 L 391.79268,499.37207 L 389.94848,499.08088 L 391.40443,502.96340 z M 397.51940,497.04255 L 395.86933,497.81906 L 397.03409,501.50746 L 399.55773,501.70158 L 400.33423,504.90466 L 403.05200,506.06942 L 409.06991,503.25459 L 403.44025,498.59556 L 397.51940,497.04255 z M 385.09532,493.06296 L 384.22176,495.68367 L 388.39547,495.58657 L 392.27799,496.55720 L 390.23967,493.35411 L 385.09532,493.06292 z M 372.86537,485.39498 L 370.63292,483.25959 L 366.36214,486.55974 L 369.07991,491.60702 L 371.02117,489.56869 L 376.55377,490.73345 L 376.06845,488.40393 L 372.86537,485.39498 z M 329.38109,481.12420 L 329.96347,479.76532 L 331.61354,478.89175 L 329.38109,481.12420 z M 344.81413,472.29146 L 338.01971,474.81510 L 337.34027,476.65930 L 340.05804,478.60056 L 343.84350,479.57119 L 346.56126,474.23272 L 344.81413,472.29146 z"
     style="stroke-width:0.97063118000000004;fill:#f9f9f9" />
  <path
     inkscape:connector-curvature="0"
     id="ID"
     data-name="Idaho"
     data-id="ID"
     d="m 309.0949,52.881715 -8.63862,-1.747136 -2.81483,-0.679442 -1.26182,-0.291189 -11.25932,50.666952 0.48532,4.17371 -0.38826,4.36784 0.19413,0.97063 0,0.0971 0.0971,1.84419 3.30015,3.59134 -4.75609,11.93876 -10.09457,13.20059 -0.29119,2.42658 2.62071,6.21204 -9.221,38.24287 -0.38825,2.03832 2.71776,0.58238 27.46887,5.43553 10.96813,2.03833 2.81483,0.48532 2.71777,0.48531 13.97709,2.23245 25.04228,3.78546 2.81483,0.38826 0.38825,-3.20309 0.87357,-6.3091 3.30015,-25.23641 1.74714,-12.52114 0.38825,-3.20309 -0.58238,-0.29119 -3.00896,-5.43553 -2.52364,3.30015 -10.19163,-1.0677 -8.05624,0.0971 -0.97063,0.7765 -3.78546,-7.76505 -0.97063,-0.7765 -5.43553,-13.29765 -0.77651,-4.46491 -9.60925,-0.67944 1.8442,-5.33847 1.35888,-0.38825 3.39721,-15.91835 -2.91189,0.19412 -0.67944,-2.03832 -7.18267,-12.035829 -2.52364,-2.135389 -1.8442,-5.047282 0.87357,-0.776505 -1.45595,-5.532598 -1.8442,-3.591335 4.17371,-19.800877 -0.0971,0 z"
     style="stroke-width:0.97063118000000004;fill:#f9f9f9" />
  <path
     inkscape:connector-curvature="0"
     id="WA"
     data-name="Washington"
     data-id="WA"
     d="m 192.13384,77.050432 0.0971,-1.650073 -0.19412,0.09706 0.0971,1.55301 z m 20.67445,-8.832744 0.58237,-0.970631 -0.67944,-0.09706 0.0971,1.067694 z m -1.8442,-1.747136 0.58237,-1.941262 -0.58237,-0.194127 0,2.135389 z m 7.0856,-2.814831 -0.0971,-1.941262 -1.65007,2.523641 1.74713,-0.582379 z m 0.19413,-4.076651 0.29119,-1.941262 -0.19413,-0.485316 -0.0971,2.426578 z m 0.29119,-9.512185 -0.0971,-1.067695 -0.38826,-0.09706 0.48532,1.164758 z m 3.10602,-6.406166 -0.87357,-0.09706 -1.74713,2.717767 2.6207,-2.620704 z m -2.42658,-2.620705 0.48532,-0.388252 0.0971,-0.291189 -0.58238,0.679441 z m -0.48531,0.29119 -0.29119,-1.941263 -0.87357,1.650073 1.16476,0.29119 z m -0.48532,-2.717768 -0.87357,-0.388252 0.67944,0.970631 0.19413,-0.582379 z m 2.91189,1.650074 0,-1.261821 -0.29119,0.485316 0.29119,0.776505 z m 0.87357,-1.261821 -0.38825,-0.291189 -0.0971,0 0.48531,0.291189 z m -5.5326,-2.135389 -0.48531,-0.388252 -0.19413,-0.09706 0.67944,0.485315 z m 3.59134,-0.388252 -2.6207,0.679442 0.67944,0.194126 1.94126,-0.873568 z m -2.13539,-0.194126 -0.48531,-0.582379 -0.0971,0.09706 0.58238,0.485316 z m 2.03833,-1.164758 -0.38826,0 0.48532,0.194126 -0.0971,-0.194126 z m -19.02438,49.793381 3.49428,3.785461 -0.58238,7.279734 0.67944,1.8442 5.24141,2.81483 14.75359,1.35888 0.58238,1.74714 6.98855,0.0971 6.60029,0.87357 10.774,-1.16476 5.33848,0.87357 1.45594,-0.67944 27.27474,6.21204 1.8442,0.38825 -0.19413,-0.97063 0.38826,-4.36784 -0.48532,-4.17371 11.25932,-50.666952 -1.55301,-0.29119 -22.71277,-5.338471 -19.80087,-5.047282 -22.42159,-6.21204 -6.69735,-1.650073 1.55301,8.444491 -1.45595,2.717768 -2.6207,-1.358884 2.52364,11.744637 -2.71777,3.882525 -1.26182,3.591336 0,3.688398 -5.72672,3.979588 -2.42658,-1.55301 -2.32952,1.164758 4.27078,-5.532598 -1.06769,3.785462 2.42658,-2.620705 1.94126,0.388253 -0.58238,-4.853156 1.26182,0.194126 2.6207,-5.823787 -0.87356,-0.873568 -3.39721,4.36784 -2.23246,0.09706 2.42658,-2.717767 2.71777,-0.679442 -0.97063,-4.950219 -2.71777,-0.679442 -1.35888,-2.329515 -1.65008,0.873568 -8.9298,-3.882524 -7.86211,-6.114977 -2.13539,5.92085 -0.19413,2.523641 1.65007,4.464904 -1.06769,14.462405 -0.77651,2.232452 4.36784,0.388252 -4.36784,3.10602 2.32952,1.164757 -1.8442,6.21204 -0.87357,-4.853156 -1.65007,5.629661 2.23245,2.717767 2.42658,-0.194126 2.91189,1.747136 1.45595,2.814831 1.74713,0 0,0 z"
     style="stroke-width:0.97063118000000004;fill:#f9f9f9" />
  <path
     inkscape:connector-curvature="0"
     id="AZ"
     data-name="Arizona"
     data-id="AZ"
     d="m 372.18593,309.90486 -32.71027,-4.07665 -17.56843,-2.52365 -25.04228,-3.97958 -2.52364,-0.38826 0,0.19413 -4.27078,18.83025 -2.23245,-0.0971 -3.39721,-3.00895 -4.27078,3.59133 -0.0971,15.43304 -1.55301,3.30014 0,0.29119 0,0.0971 -0.19413,2.42657 3.39721,9.12394 3.00896,4.07665 -5.43554,3.20308 -2.13539,3.97959 -3.49427,8.54155 -1.74713,0.38826 -0.0971,7.0856 3.00896,2.23246 -1.55301,4.27077 -3.49427,0.19413 0,0 -2.03833,3.78546 6.98855,4.36784 13.20058,7.3768 40.76651,21.64507 34.55447,4.27078 0.38825,0 2.71777,-28.63362 0.67944,-7.08561 7.27974,-75.12685 0.38825,-3.49427 -2.52364,-0.29119 z"
     style="stroke-width:0.97063118000000004;fill:#f9f9f9" />
  <path
     inkscape:connector-curvature="0"
     id="CA"
     data-name="California"
     data-id="CA"
     d="m 206.01387,363.77489 0.38825,2.13539 0,0.38825 -0.38825,-2.52364 z m -14.26828,-8.34743 0.67944,1.45595 0.38825,-0.0971 -1.06769,-1.35888 z m 16.98604,-0.29119 0.29119,2.52364 1.74714,1.26182 -2.03833,-3.78546 z m -11.74463,-13.78296 -1.0677,-0.29119 0.87357,0.38825 0.19413,-0.0971 z m -10.77401,-2.9119 -2.6207,1.55301 0.67944,0.67945 1.94126,-2.23246 z m -5.04728,-1.8442 -0.19413,0.77651 0.87357,0.19413 -0.67944,-0.97064 z m 8.54155,1.94127 4.27078,2.42658 0.77651,-0.67945 -5.04729,-1.74713 z m -33.09852,-85.51261 -0.0971,0.0971 0.0971,-0.0971 0,0 z m 10.38575,0.48531 -0.0971,-0.29119 0,0.38826 0.0971,-0.0971 z m 56.00542,-73.6709 -3.78546,-0.97064 -41.54301,-11.45344 -15.43304,-4.65903 0,0.38825 -0.87357,9.60925 -4.07665,11.35638 -6.79442,8.44449 -0.19412,4.27078 3.30014,5.92085 1.65008,7.76505 -2.32952,6.3091 0.38825,6.30911 -1.16475,2.6207 3.97958,8.63862 2.52364,3.30015 -0.19412,9.41512 6.01791,5.72672 3.49427,-5.82378 3.78547,3.00895 1.45594,-1.35888 -5.24141,0.97063 -0.0971,4.95022 1.0677,6.21204 -2.9119,-2.81483 -1.65007,-3.78546 -0.48532,5.2414 1.35889,10.38576 5.43553,6.69735 -3.59133,4.65903 0.58237,5.92085 3.88253,6.01792 6.79442,18.63612 2.13539,1.16475 -0.67945,12.9094 1.0677,1.55301 14.55947,5.24141 4.4649,4.75609 1.55301,3.10602 4.27078,2.42658 4.65903,0.87357 1.94126,5.33847 3.88252,1.8442 5.82379,6.89148 5.43554,9.02687 -0.38826,8.34743 3.00896,3.97958 39.69882,3.88253 0,0 3.49427,-0.19413 1.55301,-4.27077 -3.00896,-2.23246 0.0971,-7.0856 1.74713,-0.38826 3.49427,-8.54155 2.13539,-3.97959 5.43554,-3.20308 -3.00896,-4.07665 -3.39721,-9.12394 0.19413,-2.42657 0,-0.0971 -2.52364,-3.39721 -7.76505,-10.38575 -15.04479,-21.15976 -20.96563,-30.08957 -11.8417,-16.40366 -11.45345,-16.50074 13.20058,-56.00542 0.87357,-3.68839 z"
     style="stroke-width:0.97063118000000004;fill:#f9f9f9" />
  <path
     inkscape:connector-curvature="0"
     id="CO"
     data-name="Colorado"
     data-id="CO"
     d="m 489.6323,255.54951 0.38826,-19.02437 -4.65903,-0.19413 -23.6834,-0.87357 -2.32952,-0.0971 -1.94126,-0.0971 -28.82775,-1.8442 -19.2185,-1.55301 -23.97459,-2.32952 -2.32951,-0.29119 -0.29119,2.52365 -5.24141,50.56988 -1.8442,17.66549 -0.7765,7.66799 -0.19413,2.52364 3.00896,0.29119 48.91981,4.27077 21.54801,1.35889 21.45095,0.97063 3.10602,0.0971 1.94126,0.0971 4.07665,0.0971 1.94127,0.0971 6.11497,0.19413 1.55301,0 0,-1.94127 1.0677,-51.34639 0.0971,-5.72672 0,-1.8442 0.0971,-1.26182 z"
     style="stroke-width:0.97063118000000004;fill:#f9f9f9" />
  <path
     inkscape:connector-curvature="0"
     id="NV"
     data-name="Nevada"
     data-id="NV"
     d="m 294.82662,295.8307 10.09457,-62.79983 5.14434,-31.44846 0.58238,-3.10601 -2.81483,-0.48532 -10.96813,-2.03833 -27.46887,-5.43553 -2.71776,-0.58238 -2.71777,-0.58238 -13.6859,-3.00895 -24.55697,-5.82379 -2.71777,-0.67944 -0.87357,3.68839 -13.20058,56.00542 11.45345,16.50074 11.8417,16.40366 20.96563,30.08957 15.04479,21.15976 7.76505,10.38575 2.52364,3.39721 0,-0.29119 1.55301,-3.30014 0.0971,-15.43304 4.27078,-3.59133 3.39721,3.00895 2.23245,0.0971 4.27078,-18.83025 0,-0.19413 0.48531,-3.10602 z"
     style="stroke-width:0.97063118000000004;fill:#f9f9f9" />
  <path
     inkscape:connector-curvature="0"
     id="NM"
     data-name="New Mexico"
     data-id="NM"
     d="m 472.45213,324.75551 0.0971,-2.52364 0.0971,-2.52364 0.0971,-2.52364 -3.10602,-0.0971 -21.45095,-0.97063 -21.54801,-1.35889 -48.91981,-4.27077 -3.00896,-0.29119 -0.38825,3.49427 -7.27974,75.12685 -0.67944,7.08561 -2.71777,28.63362 0.38826,0.0971 13.39471,1.26183 1.26182,-6.79442 2.42658,-1.94127 27.17767,2.42658 0.19413,0 -2.42658,-4.75609 12.32701,0.87357 30.76901,1.74713 19.2185,0.87357 3.30015,-91.0452 0.67944,0.0971 0.0971,-2.62071 z"
     style="stroke-width:0.97063118000000004;fill:#f9f9f9" />
  <path
     inkscape:connector-curvature="0"
     id="OR"
     data-name="Oregon"
     data-id="OR"
     d="m 162.2384,162.75717 15.43304,4.65903 41.54301,11.45344 3.78546,0.97064 2.71777,0.67944 24.55697,5.82379 13.6859,3.00895 2.71777,0.58238 0.38825,-2.03832 9.221,-38.24287 -2.62071,-6.21204 0.29119,-2.42658 10.09457,-13.20059 4.75609,-11.93876 -3.30015,-3.59134 -0.0971,-1.84419 0,-0.0971 -1.8442,-0.38825 -27.27474,-6.21204 -1.45594,0.67944 -5.33848,-0.87357 -10.774,1.16476 -6.60029,-0.87357 -6.98855,-0.0971 -0.58238,-1.74714 -14.75359,-1.35888 -5.24141,-2.81483 -0.67944,-1.8442 0.58238,-7.279734 -3.49428,-3.785461 -0.29118,0.09706 -0.67945,0.485315 -4.85315,-2.523641 -2.9119,0.873568 -1.94126,-0.970631 -2.03832,8.347429 -1.35889,2.329514 -6.01791,14.656531 -1.74714,8.05624 -1.06769,0.0971 -5.62966,13.39471 -3.78546,5.72672 -1.35889,0.97063 -3.49427,6.79442 -0.67944,7.18267 -2.13539,6.40617 1.26182,5.82378 0,0.0971 z m 35.5251,-79.688825 -0.29119,-0.873568 -0.0971,0.679442 0.38825,0.194126 z"
     style="stroke-width:0.97063118000000004;fill:#f9f9f9" />
  <path
     inkscape:connector-curvature="0"
     id="UT"
     data-name="Utah"
     data-id="UT"
     d="m 352.38505,204.97962 -25.04228,-3.78546 -13.97709,-2.23245 -2.71777,-0.48531 -0.58238,3.10601 -5.14434,31.44846 -10.09457,62.79983 -0.48531,3.10602 2.52364,0.38826 25.04228,3.97958 17.56843,2.52365 32.71027,4.07665 2.52364,0.29119 0.19413,-2.52364 0.7765,-7.66799 1.8442,-17.66549 5.24141,-50.56988 0.29119,-2.52365 -1.94126,-0.19412 -24.7511,-3.00896 -3.78546,-0.48531 2.42658,-18.92731 0.19412,-1.26182 -2.81483,-0.38826 z"
     style="stroke-width:0.97063118000000004;fill:#f9f9f9" />
  <path
     inkscape:connector-curvature="0"
     id="WY"
     data-name="Wyoming"
     data-id="WY"
     d="m 461.38694,192.16729 0.7765,-15.14184 0.97063,-20.38326 0.0971,-2.52364 -1.26182,-0.0971 -24.94522,-1.45595 -13.97709,-1.16476 -26.49823,-2.52364 -33.19559,-4.07665 -1.35888,9.51219 -0.0971,0.58237 -0.38825,3.20309 -1.74714,12.52114 -3.30015,25.23641 -0.87357,6.3091 -0.38825,3.20309 -0.19412,1.26182 -2.42658,18.92731 3.78546,0.48531 24.7511,3.00896 1.94126,0.19412 2.32951,0.29119 23.97459,2.32952 19.2185,1.55301 28.82775,1.8442 1.94126,0.0971 0.0971,-2.52364 0.48532,-10.19163 0.87357,-17.76255 0.38825,-7.57092 0.0971,-2.52364 0.0971,-2.62071 z"
     style="stroke-width:0.97063118000000004;fill:#f9f9f9" />
  <path
     inkscape:connector-curvature="0"
     id="AR"
     data-name="Arkansas"
     data-id="AR"
     d="m 690.4559,328.05566 -10.48282,1.55301 4.27078,-6.79442 -1.8442,-3.78546 -36.98105,3.59134 -31.25432,2.52364 -4.56197,0.29119 0.58238,2.71776 3.78546,19.60675 0.0971,4.36784 1.0677,26.40117 0.0971,4.36784 0.29119,0.0971 1.45595,1.55301 5.82378,-0.19413 0.58238,8.54155 0.19413,2.42658 3.00896,-0.29119 9.22099,-0.67944 36.5928,-3.39721 0.19412,0 -0.0971,-2.13539 0.97063,-0.67944 -1.74713,-3.30014 3.6884,-15.5301 -1.45595,-1.74714 5.5326,-6.11498 -0.38826,-5.2414 4.07665,-6.79442 0,-0.0971 -0.19412,-0.19412 3.49427,-3.20309 -0.97063,-3.88252 2.71777,-4.27078 -0.58238,-3.97959 2.91189,-5.62966 0,-0.0971 -0.0971,0 z"
     style="stroke-width:0.97063118000000004;fill:#f9f9f9" />
  <path
     inkscape:connector-curvature="0"
     id="IA"
     data-name="Iowa"
     data-id="IA"
     d="m 661.53109,197.69989 -5.33847,-2.81483 -2.9119,-3.97959 -0.97063,-5.72672 0.77651,-2.62071 -2.81483,-3.39721 0,0 -4.7561,0.48532 -47.75505,3.97959 -19.12144,1.06769 -4.85315,0.29119 -2.03833,0.0971 1.65008,10.77401 -1.35889,5.14435 2.13539,3.20308 0,0.67944 0.67944,0.0971 3.10602,9.12394 3.00896,4.75609 0.19413,5.43554 3.30014,4.56196 -0.58238,1.94126 3.00896,12.22996 0,0.29119 0,0 19.89794,-0.58238 21.25682,-1.8442 20.86857,-2.62071 4.7561,4.17372 0.19412,0.19412 0.87357,-0.38825 -0.67944,-3.78546 3.59133,-2.23245 1.45595,-9.90044 -1.45595,-0.67944 0.87357,-5.04728 4.36784,-0.87357 4.85316,-3.49427 2.13539,-6.11498 0.0971,-3.10602 -3.88252,-3.6884 -1.16476,-2.32951 -3.6884,-2.32952 0.19413,-0.48531 0.0971,-0.48532 z"
     style="stroke-width:0.97063118000000004;fill:#f9f9f9" />
  <path
     inkscape:connector-curvature="0"
     id="KS"
     data-name="Kansas"
     data-id="KS"
     d="m 608.92288,312.71969 -2.42658,-41.0577 -4.36784,-2.52364 -0.38825,-1.94127 -3.49428,-3.10602 3.39721,-4.17371 -1.35888,-2.42658 -2.52364,0.0971 -2.32952,-1.65008 -0.97063,-0.7765 -3.30014,0.19412 -35.81629,1.35889 -16.40367,0.38825 -32.61321,0 -13.10352,-0.19413 -3.6884,-0.0971 0,1.8442 -0.0971,5.72672 -1.0677,51.34639 0,1.94127 4.17372,0.0971 22.51864,0.29119 52.70528,-0.77651 37.56342,-1.74713 3.6884,-0.29119 -0.0971,-2.52364 z"
     style="stroke-width:0.97063118000000004;fill:#f9f9f9" />
  <path
     inkscape:connector-curvature="0"
     id="MO"
     data-name="Missouri"
     data-id="MO"
     d="m 653.66898,242.44599 -4.7561,-4.17372 -20.86857,2.62071 -21.25682,1.8442 -19.89794,0.58238 0,0 -0.0971,0.58238 2.42657,4.65903 2.23246,1.553 2.6207,4.65903 0.38825,0.38826 0.97063,0.7765 2.32952,1.65008 2.52364,-0.0971 1.35888,2.42658 -3.39721,4.17371 3.49428,3.10602 0.38825,1.94127 4.36784,2.52364 2.42658,41.0577 0.0971,2.52364 0.19413,2.52364 0.0971,2.52364 0.19413,2.6207 0.0971,2.52365 4.56197,-0.29119 31.25432,-2.52364 36.98105,-3.59134 1.8442,3.78546 -4.27078,6.79442 10.48282,-1.55301 0.0971,0 0,-0.7765 0.19413,-4.46491 1.94126,-2.42658 -0.58238,-2.71776 -0.0971,-0.0971 -0.0971,-0.0971 0.38825,-1.26182 0.58238,0.19413 0.29119,0.7765 -0.0971,0.29119 0,0.0971 0,0.77651 0.38826,0.0971 0.7765,-0.97063 0,-0.0971 0.0971,-0.29119 2.52364,-1.55301 0.38826,-0.19413 0.87357,-7.95917 -0.19413,-0.38826 -0.29119,-0.0971 -6.89148,-5.62966 1.06769,-2.03833 -1.94126,-5.53259 -3.49427,-2.71777 -6.60029,-2.9119 -4.17372,-3.3972 0.48532,-6.98855 1.26182,-6.50323 -6.98855,0.38825 -2.13539,-2.23245 -0.97063,-4.4649 -11.06519,-9.31806 -3.10602,-8.63862 0.7765,-4.27078 0,0 -0.19412,-0.19412 z"
     style="stroke-width:0.97063118000000004;fill:#f9f9f9" />
  <path
     inkscape:connector-curvature="0"
     id="NE"
     data-name="Nebraska"
     data-id="NE"
     d="m 572.33008,204.68843 -3.00895,-3.00895 -10.57988,-3.10602 -3.39721,-0.0971 -5.14435,1.45594 -6.11498,-3.88252 -19.12143,0.19412 -27.85712,-0.29119 -32.90439,-1.06769 -2.9119,-0.0971 -0.0971,2.52364 -0.38825,7.57092 -0.87357,17.76255 -0.48532,10.19163 -0.0971,2.52364 2.32952,0.0971 23.6834,0.87357 4.65903,0.19413 -0.38826,19.02437 -0.0971,1.26182 3.6884,0.0971 13.10352,0.19413 32.61321,0 16.40367,-0.38825 35.81629,-1.35889 3.30014,-0.19412 -0.38825,-0.38826 -2.6207,-4.65903 -2.23246,-1.553 -2.42657,-4.65903 0.0971,-0.58238 0,-0.29119 -3.00896,-12.22996 0.58238,-1.94126 -3.30014,-4.56196 -0.19413,-5.43554 -3.00896,-4.75609 -3.10602,-9.12394 -0.67944,-0.0971 -1.8442,-0.19413 z"
     style="stroke-width:0.97063118000000004;fill:#f9f9f9" />
  <path
     inkscape:connector-curvature="0"
     id="OK"
     data-name="Oklahoma"
     data-id="OK"
     d="m 609.50526,322.91131 -0.19413,-2.6207 -0.0971,-2.52364 -0.19413,-2.52364 -3.6884,0.29119 -37.56342,1.74713 -52.70528,0.77651 -22.51864,-0.29119 -4.17372,-0.0971 -1.55301,0 -6.11497,-0.19413 -1.94127,-0.0971 -4.07665,-0.0971 -1.94126,-0.0971 -0.0971,2.52364 -0.0971,2.52364 -0.0971,2.52364 -0.0971,2.62071 0.58238,0 23.48927,0.58238 24.84816,0.29119 0.29119,33.19558 1.74714,5.82379 3.88252,3.6884 4.17372,0.19413 0.87356,-1.74714 5.72673,5.24141 7.47386,0.7765 1.35888,1.55301 2.71777,-1.26182 6.79442,3.20309 0,1.84419 2.52364,-0.0971 2.6207,-2.23245 4.85316,3.10602 4.56197,1.65007 3.10601,-4.27077 9.90044,4.65902 3.6884,-3.00895 3.00896,-1.16476 2.42658,0.58238 9.12393,-2.6207 4.85316,2.03832 4.36784,2.81483 3.78546,0.67944 0.0971,0 -0.0971,-4.36784 -1.0677,-26.40117 -0.0971,-4.36784 -3.78546,-19.60675 -0.58238,-2.71776 -0.0971,-2.52365 z"
     style="stroke-width:0.97063118000000004;fill:#f9f9f9" />
  <path
     inkscape:connector-curvature="0"
     id="SD"
     data-name="South Dakota"
     data-id="SD"
     d="m 566.89455,135.57949 -16.40367,0.48532 -39.50469,0.29119 -42.80484,-1.16476 -3.78546,-0.19413 -0.0971,2.23246 -0.38825,8.83274 -0.29119,6.69736 -0.0971,1.35888 -0.29119,0 -0.0971,2.52364 -0.97063,20.38326 -0.7765,15.14184 -0.0971,2.62071 2.9119,0.0971 32.90439,1.06769 27.85712,0.29119 19.12143,-0.19412 6.11498,3.88252 5.14435,-1.45594 3.39721,0.0971 10.57988,3.10602 3.00895,3.00895 1.8442,0.19413 0,-0.67944 -2.13539,-3.20308 1.35889,-5.14435 -1.65008,-10.77401 2.03833,-0.0971 -0.19413,-4.4649 -4.85315,-34.16622 -2.52364,-4.27078 3.88252,-6.40616 0.0971,-0.29119 -3.30014,0.19412 z"
     style="stroke-width:0.97063118000000004;fill:#f9f9f9" />
  <path
     inkscape:connector-curvature="0"
     id="LA"
     data-name="Louisiana"
     data-id="LA"
     d="m 688.99995,469.2825 -1.26182,0.29119 -0.58238,0.58238 1.8442,-0.87357 z m 4.07665,0 -0.67944,-0.29119 -0.19412,0.29119 0.87356,0 z m 2.32952,-0.77651 -0.67944,0 -0.38826,0.48532 1.0677,-0.48532 z m -1.16476,-0.67944 -0.19413,-0.29119 -0.0971,0.29119 0.29119,0 z m 7.76505,-5.14434 -0.29119,0.19412 0.48532,0 -0.19413,-0.19412 z m 13.58884,-5.72673 0.58238,-0.7765 -0.67945,0.87357 0.0971,-0.0971 z m 1.94126,-2.52364 -0.19413,0.0971 0,0.0971 0.19413,-0.19413 z m -49.89044,8.54156 1.45594,-1.8442 -3.97959,-1.0677 -1.74713,1.45595 4.27078,1.45595 z m 40.28119,-8.44449 -0.38825,-0.38826 -0.0971,0.19413 0.48532,0.19413 z m 1.06769,-1.74714 -0.97063,-0.29119 0.29119,0.97063 0.67944,-0.67944 z m 7.95918,-1.65007 0,-0.29119 0,0.0971 0,0.19413 z m 1.94126,-1.26182 -0.0971,-0.0971 0.0971,0.19413 0,-0.0971 z m -0.7765,-0.19413 -0.19413,-0.0971 -0.0971,0.29119 0.29119,-0.19413 z m -6.79442,-0.29119 0.87357,-0.29119 0,-0.29119 -0.87357,0.58238 z m 0.48532,-0.48532 0.48531,-0.48531 -0.0971,-0.0971 -0.38825,0.58237 z m -3.39721,-3.59133 -0.19413,0.19413 0.0971,0 0.0971,-0.19413 z m -35.8163,-54.35535 -0.19412,0 -36.5928,3.39721 -9.22099,0.67944 -3.00896,0.29119 0.0971,2.32952 1.94126,18.73318 3.20309,4.4649 0.0971,2.62071 3.10602,5.43553 2.52364,7.95918 -0.87357,4.4649 -0.67944,11.0652 -1.45594,3.59133 0.19412,0 0.29119,2.52364 -1.65007,2.32952 12.03582,-1.35889 9.41513,2.62071 6.69735,0.87357 3.39721,-2.42658 -1.8442,-2.42658 6.21204,-1.94126 -0.19412,2.13539 3.20308,-0.77651 2.6207,4.07665 2.23245,-0.7765 5.82379,3.97959 -3.59133,1.26182 8.25036,2.42657 3.10602,0 1.8442,-2.23245 3.97959,-2.13539 2.81483,4.07666 1.94126,-3.6884 -0.58238,-5.82379 5.24141,2.03833 0.58238,1.74713 6.21204,0.77651 3.10602,2.52364 -0.38825,2.03832 4.36784,-4.07665 -1.65008,-2.13539 -7.27973,-1.8442 -2.71777,-1.55301 -0.0971,-2.91189 3.00896,0.38825 2.32951,-4.75609 -3.00896,-4.17371 -1.65007,3.97958 -3.78546,-0.67944 2.6207,-4.27078 -1.74713,-0.48531 -4.27078,3.00896 -6.11498,0.38825 -1.74713,-1.35889 2.81483,-4.95021 3.30014,-0.0971 5.62967,1.8442 4.07665,0.38825 0,0 -2.23245,-2.81483 -4.27078,-8.34742 1.16476,-4.65903 -33.48678,3.68839 1.26182,-1.26182 -1.35888,-3.49427 2.03832,-3.00896 1.16476,-7.57092 7.3768,-12.6182 -3.59134,-4.36784 0.19413,-3.20309 -2.23246,-5.24141 0,-0.67944 z"
     style="stroke-width:0.97063118000000004;fill:#f9f9f9" />
  <path
     inkscape:connector-curvature="0"
     id="TX"
     data-name="Texas"
     data-id="TX"
     d="m 573.98015,536.93549 -4.65902,-17.56842 0,3.30015 4.65902,14.26827 z m -1.06769,-30.86607 -3.30015,6.21204 -0.38825,2.03833 3.6884,-8.25037 z m 2.6207,-4.56196 3.10602,-4.07666 -2.23245,1.35889 -0.87357,2.71777 z m 10.96814,-9.90044 -7.27974,3.78546 2.03833,-0.38825 5.24141,-3.39721 z m 0.97063,-1.35889 2.03832,-1.65007 -0.7765,0.19413 -1.26182,1.45594 z m -115.11686,-162.87191 -0.67944,-0.0971 -3.30015,91.0452 -19.2185,-0.87357 -30.76901,-1.74713 -12.32701,-0.87357 2.42658,4.75609 0.0971,0.0971 10.48282,10.48281 6.01791,7.08561 7.95917,5.92085 5.62967,10.28869 2.13538,10.77401 4.56197,3.00895 3.59134,3.97959 5.14434,1.8442 7.47386,4.75609 3.39721,1.26183 4.65903,-4.65903 1.45595,-4.95022 2.42658,-4.7561 7.57092,-3.00895 2.91189,1.45594 8.44449,0.67945 7.66799,4.75609 5.24141,0.97063 -1.45595,2.71777 3.00896,1.94126 2.81483,3.39721 0.58238,3.59133 1.8442,2.42658 4.27077,10.28869 4.27078,3.59134 3.30015,5.43553 4.17371,4.27078 1.8442,0.58238 1.55301,11.06519 4.56197,2.52365 0.19412,3.49427 1.16476,-0.29119 7.95918,9.70631 3.97959,0.87357 5.04728,3.00896 7.76505,0 5.62966,3.10601 6.69735,-1.45594 -3.00895,-2.81483 -2.71777,-8.1533 -1.06769,-7.08561 -1.55301,-2.32952 0.67944,-4.75609 -2.03833,-0.19413 -2.71777,-4.4649 3.10602,3.30015 3.59134,-1.26182 1.94126,-5.14435 -3.88252,-5.24141 5.82378,0.67944 2.71777,-4.17371 -0.38825,-1.45595 2.42658,-3.20308 -0.58238,2.81483 2.71777,-2.13539 -1.0677,-3.78546 3.49427,1.8442 4.46491,-2.52364 -4.36784,-4.56197 2.71776,1.0677 5.04729,0.29119 6.60029,-1.45595 7.3768,-4.95022 4.4649,-3.6884 0.67944,-2.71777 2.71777,-2.81483 -1.45595,-4.65903 0.29119,-2.91189 4.85316,-2.13539 -0.38826,5.14435 2.9119,0 -3.20308,2.71776 12.90939,-6.79441 2.13539,-0.0971 1.35888,-6.21204 0.38826,0 1.45594,-3.59133 0.67944,-11.0652 0.87357,-4.4649 -2.52364,-7.95918 -3.10602,-5.43553 -0.0971,-2.62071 -3.20309,-4.4649 -1.94126,-18.73318 -0.0971,-2.32952 -0.19413,-2.42658 -0.58238,-8.54155 -5.82378,0.19413 -1.45595,-1.55301 -0.29119,-0.0971 -0.0971,0 -3.78546,-0.67944 -4.36784,-2.81483 -4.85316,-2.03832 -9.12393,2.6207 -2.42658,-0.58238 -3.00896,1.16476 -3.6884,3.00895 -9.90044,-4.65902 -3.10601,4.27077 -4.56197,-1.65007 -4.85316,-3.10602 -2.6207,2.23245 -2.52364,0.0971 0,-1.84419 -6.79442,-3.20309 -2.71777,1.26182 -1.35888,-1.55301 -7.47386,-0.7765 -5.72673,-5.24141 -0.87356,1.74714 -4.17372,-0.19413 -3.88252,-3.6884 -1.74714,-5.82379 -0.29119,-33.19558 -24.84816,-0.29119 -23.48927,-0.58238 -0.58238,0 z"
     style="stroke-width:0.97063118000000004;fill:#f9f9f9" />
  <path
     inkscape:connector-curvature="0"
     id="CT"
     data-name="Connecticut"
     data-id="CT"
     d="m 936.99622,143.34454 -13.97709,5.33847 -0.19412,-0.48531 -7.86211,2.32951 -1.74714,0.48532 0.19413,0.97063 3.68839,14.26828 1.16476,1.45595 -2.52364,3.10602 1.74714,1.65007 0,0 5.62966,-5.43554 3.00895,-4.17371 0.58238,1.16476 14.17122,-6.30911 0.29119,-0.29118 -0.0971,-2.32952 -0.58237,-2.03833 -3.00896,-8.44449 -0.38825,-1.06769 -0.0971,-0.19413 z"
     style="stroke-width:0.97063118000000004;fill:#f9f9f9" />
  <path
     inkscape:connector-curvature="0"
     id="NH"
     data-name="New Hampshire"
     data-id="NH"
     d="m 923.8927,75.982738 -1.26182,1.55301 -1.45594,-0.29119 -0.77651,6.406166 0,0.09706 2.32952,8.735681 -0.19413,1.747136 -4.17372,5.532598 1.0677,5.047281 0,6.30911 -0.77651,5.82378 4.36784,15.91836 0,0 0,0 3.97959,-1.26182 12.22996,-4.07666 5.53259,-6.01791 0,0 0,-1.55301 0.29119,-2.52364 -0.67944,0.29119 -0.0971,-0.58238 -6.11498,-7.47386 -0.19413,-0.67944 -14.07415,-33.001465 0,0 z"
     style="stroke-width:0.97063118000000004;fill:#f9f9f9" />
  <path
     inkscape:connector-curvature="0"
     id="RI"
     data-name="Rhode Island"
     data-id="RI"
     d="m 946.50841,152.08022 -0.0971,-2.03832 -0.29119,0.7765 0.38825,1.26182 z m 1.94126,-1.55301 -1.26182,-2.42657 -0.0971,2.52364 1.35888,-0.0971 z m -0.58238,-3.00895 0.67944,1.74713 0.87357,1.55301 0.58238,-1.16475 -0.87357,-1.65008 -0.29119,-1.16475 -0.97063,0 0,0.67944 z m -10.774,-3.97959 0.38825,1.06769 3.00896,8.44449 0.58237,2.03833 0.0971,2.32952 0.19412,-0.29119 4.65903,-3.6884 -0.87356,-6.60029 1.94126,-0.38826 0,0 -4.27078,-5.14434 -4.4649,1.74713 -1.26182,0.48532 z"
     style="stroke-width:0.97063118000000004;fill:#f9f9f9" />
  <path
     inkscape:connector-curvature="0"
     id="VT"
     data-name="Vermont"
     data-id="VT"
     d="m 923.01913,132.86173 -4.36784,-15.91836 0.77651,-5.82378 0,-6.30911 -1.0677,-5.047278 4.17372,-5.532598 0.19413,-1.747136 -2.32952,-8.735681 -1.26182,0.485316 -5.33847,1.941262 -5.24141,2.038326 -12.03583,4.36784 -0.67944,0.194126 4.36784,10.191633 1.45595,9.60924 5.14434,8.05624 4.85316,15.91835 0.19413,-0.0971 0.7765,-0.29119 2.23245,-0.67944 1.94126,-0.67944 5.5326,-1.65007 0.67944,-0.29119 0,0 z"
     style="stroke-width:0.97063118000000004;fill:#f9f9f9" />
  <path
     inkscape:connector-curvature="0"
     id="AL"
     data-name="Alabama"
     data-id="AL"
     d="m 718.31301,344.84758 0.38826,0.77651 1.35888,0.87356 0.58238,39.79588 0.19413,21.8392 4.95021,29.89545 0.38826,-0.0971 4.36784,0.87357 1.16475,-8.63862 1.94127,4.85316 3.30014,3.00896 6.30911,-3.6884 -0.67945,-0.58238 0.19413,0.0971 -4.36784,-9.9975 41.93127,-6.79442 2.81483,-0.48531 0,-0.0971 -2.62071,-4.95022 -0.19412,-7.0856 -2.13539,-3.88253 1.06769,-7.57092 1.74714,-1.94126 -7.18267,-12.81234 -13.00646,-39.60175 -0.0971,-0.19413 -2.9119,0.48532 -15.5301,2.52364 -7.76504,0.97063 -16.30661,2.23245 0.0971,0.19413 z"
     style="stroke-width:0.97063118000000004;fill:#f9f9f9" />
  <path
     inkscape:connector-curvature="0"
     id="FL"
     data-name="Florida"
     data-id="FL"
     d="m 854.6867,535.28542 -0.19413,0 0.0971,0.0971 0.0971,-0.0971 z m -0.87357,-0.0971 0,0.0971 0.0971,0 -0.0971,-0.0971 z m 0.19413,-0.0971 0,-0.0971 0,0.0971 0,0 z m -13.20059,1.45594 0,0 0,0.0971 0,-0.0971 z m -0.19412,0.0971 0,-0.0971 0,0.0971 0,0 z m 0.0971,-0.0971 0,0 0,0 0,0 z m -0.97063,0.0971 -0.0971,0 0,0.0971 0.0971,-0.0971 z m 27.56592,-6.11498 -0.0971,0 0.0971,0.19412 0,-0.19412 z m 2.62071,-0.67944 0,-0.19413 -0.19413,0.29119 0.19413,-0.0971 z m -0.97063,-0.19413 -0.38826,-0.38825 -0.0971,0.0971 0.48532,0.29119 z m -0.29119,0.77651 -1.16476,-1.45595 0.67944,1.26182 0.48532,0.19413 z m 9.22099,-5.72673 0,0.38825 0.19413,-0.19412 -0.19413,-0.19413 z m 1.35889,-0.97063 0.29119,-0.48532 -0.38826,0.38826 0.0971,0.0971 z m 0.29119,-0.97063 -0.0971,0 0,0.0971 0.0971,-0.0971 z m -1.74714,-0.29119 -0.0971,-0.0971 0.0971,0.0971 0,0 z m 0.87357,-1.45595 -0.0971,-0.0971 0,0.19413 0.0971,-0.0971 z m -2.62071,-0.0971 -0.0971,-0.0971 0.0971,0.0971 0,0 z m 3.30015,-2.23245 -0.19413,0.0971 0.29119,0.0971 -0.0971,-0.19412 z m 0.38825,0 -0.19412,-0.19413 0.0971,0.29119 0.0971,-0.0971 z m -0.67944,-0.19413 -0.0971,-0.0971 0,0.19412 0.0971,-0.0971 z m 3.59134,-0.67944 0,-0.0971 -0.19413,0.38825 0.19413,-0.29119 z m -4.07665,0.38825 -0.19413,0 0.19413,0.0971 0,-0.0971 z m 2.03832,-1.16476 -0.29119,0 -0.0971,0.0971 0.38825,-0.0971 z m 0.77651,-0.48531 0,0 -0.0971,0 0.0971,0 z m -8.15331,0.38825 0,-0.19412 -0.0971,0.19412 0.0971,0 z m 0.87357,-0.29119 -0.29119,0 0.29119,0.58238 0,-0.58238 z m -2.32951,0.0971 0,-0.58238 -0.48532,0.0971 0.48532,0.48532 z m -1.35889,-0.97064 0.48532,0.48532 0,-0.19413 -0.48532,-0.29119 z m 14.26828,0.58238 -1.74713,0.77651 0.58237,0.0971 1.16476,-0.87357 z m -13.58883,-0.87356 -0.58238,0 0,0.19412 0.58238,-0.19412 z m 15.33597,-4.85316 0.0971,-0.48532 0.0971,-1.26182 -0.19412,1.74714 z m 0.0971,-5.43554 -0.38825,-0.97063 -0.19413,0.38826 0.58238,0.58237 z m -22.42158,2.42658 -0.19413,0.29119 0.48532,0.0971 -0.29119,-0.38825 z m -1.8442,-0.87357 -0.87357,0.29119 0.67945,0.0971 0.19412,-0.38826 z m -1.94126,0.19413 0,-0.29119 -0.0971,0.0971 0.0971,0.19413 z m -2.03833,-0.0971 -0.58238,0.38825 0.77651,0.38825 -0.19413,-0.7765 z m 2.71777,0.0971 -0.0971,-0.29119 -0.48532,-0.0971 0.58238,0.38825 z m -12.71527,-9.51219 -0.58238,0.29119 1.16476,0.38826 -0.58238,-0.67945 z m -2.32951,-3.10602 -0.77651,-1.16475 0.29119,0.87357 0.48532,0.29118 z m 3.00895,1.94127 -1.35888,-3.10602 -0.97063,-0.29119 2.32951,3.39721 z m -3.88252,-3.88253 -0.29119,-0.7765 -0.19413,-0.48532 0.48532,1.26182 z m -8.05624,-10.774 -1.74714,-1.26182 0.67945,0.67944 1.06769,0.58238 z m 43.6784,-6.50323 -7.0856,-11.8417 -0.38826,0 7.47386,11.8417 z m -49.01687,-18.92731 -0.29119,-0.0971 0.29119,0.19412 0,-0.0971 z m -0.58238,-0.67944 -0.0971,0.0971 0.0971,0.0971 0,-0.19412 z m -0.67944,-0.97063 0,-0.0971 -0.0971,0.0971 0.0971,0 z m 0.38825,-0.38826 0.29119,0.19413 0,-0.19413 -0.29119,0 z m 0.58238,-0.38825 -0.38825,0.0971 0.0971,0 0.29119,-0.0971 z m -0.67944,-0.0971 -0.29119,-0.29119 0.0971,0.0971 0.19413,0.19413 z m -0.67944,-1.0677 -0.19413,0 0.29119,0.0971 -0.0971,-0.0971 z m 0.67944,-1.16475 -0.38826,0 -0.0971,0.0971 0.48532,-0.0971 z m 0.38825,0.19412 -0.48532,-0.48531 0.19413,0.0971 0.29119,0.38825 z m -3.6884,-4.17371 -0.19413,-0.0971 0,0.0971 0.19413,0 z m -4.17371,0 -0.29119,-0.38825 0.0971,0.48531 0.19413,-0.0971 z m -35.33098,-3.20309 2.91189,-2.23245 -3.20308,2.13539 0.29119,0.0971 z m 5.82379,-4.65902 0.29119,-0.29119 -1.16476,0.48531 0.87357,-0.19412 z m -36.88399,-6.50323 -10.57988,3.39721 5.82379,-1.65008 4.75609,-1.74713 z m 26.30411,-16.50073 -2.81483,0.48531 -41.93127,6.79442 4.36784,9.9975 0.29119,0.0971 -1.06769,3.97959 3.10602,-1.35888 3.3972,-3.00896 5.82379,-0.19412 6.69736,-2.42658 4.56196,0.67944 -1.06769,1.65007 8.34743,2.81483 7.18267,3.49428 1.65007,3.88252 5.33847,-1.16476 12.61821,-10.28869 4.65903,0.19413 19.02437,14.36534 3.88252,-0.77651 4.07666,5.43554 0.7765,8.63862 -1.26182,5.43553 0.58238,2.71777 3.39721,6.79442 -1.55301,-5.33847 4.36784,-0.0971 0.38825,3.88253 -2.32951,6.01791 8.05624,11.0652 3.00895,0.0971 -2.52364,-3.39721 3.10602,0.38825 1.8442,-1.16475 -0.7765,6.21204 4.17371,3.30014 2.81483,7.57093 3.78546,2.32951 4.85316,1.26182 6.69735,8.54156 3.49428,1.84419 -4.65903,0.29119 2.13538,2.42658 7.66799,-2.52364 3.78546,-2.13539 3.49427,-12.22995 -1.74713,-19.02437 -0.38825,-1.94127 -9.31806,-15.53009 -7.95918,-11.25933 -4.4649,-9.22099 3.78546,3.20308 0.7765,-0.58238 1.65008,8.05624 4.27077,6.11498 -4.17371,-8.1533 0.19413,-3.88253 -12.52115,-15.23891 -3.00895,-4.75609 -3.97959,-8.05624 -2.71777,-6.79442 -2.13539,-2.42658 -0.48531,-3.10602 -0.0971,-0.0971 -6.69735,-0.38825 -2.62071,2.03832 -1.45594,7.47386 -1.35889,-3.49427 -45.81379,5.72672 -3.30014,-5.14434 0.0971,-0.0971 z"
     style="stroke-width:0.97063118000000004;fill:#f9f9f9" />
  <path
     inkscape:connector-curvature="0"
     id="GA"
     data-name="Georgia"
     data-id="GA"
     d="m 845.85395,396.09691 -0.0971,-2.9119 -0.67944,2.52364 0.7765,0.38826 z m 1.0677,-4.46491 -0.38825,-2.23245 -0.29119,1.35889 0.67944,0.87356 z m -45.42554,-61.14976 -1.26182,0.29119 -3.6884,0.7765 -13.58884,2.81483 -1.26182,0.29119 -1.35888,0.19413 -7.57093,1.45595 -2.03832,0.38825 -8.25037,1.55301 -1.74713,0.19412 0.0971,0.19413 13.00646,39.60175 7.18267,12.81234 -1.74714,1.94126 -1.06769,7.57092 2.13539,3.88253 0.19412,7.0856 2.62071,4.95022 0,0.0971 -0.0971,0.0971 3.30014,5.14434 45.81379,-5.72672 1.35889,3.49427 1.45594,-7.47386 2.62071,-2.03832 6.69735,0.38825 0,0 -0.58237,-10.48282 1.26182,-2.23245 -0.67945,-4.17371 1.35889,-3.97959 2.03832,-2.23245 -1.45594,-1.35889 3.39721,-4.17371 -0.0971,0 -5.82378,-5.43554 -7.95918,-11.35638 -4.36784,-2.03833 -18.73318,-15.72422 -4.56197,-5.82379 -8.83274,-3.6884 -0.48532,-1.94126 2.71777,-5.33847 0,0 z"
     style="stroke-width:0.97063118000000004;fill:#f9f9f9" />
  <path
     inkscape:connector-curvature="0"
     id="MS"
     data-name="Mississippi"
     data-id="MS"
     d="m 716.76,442.78427 -0.48531,0.0971 0,0.0971 0.48531,-0.19412 z m 9.02687,-1.16476 -1.35888,0 1.26182,0.0971 0.0971,-0.0971 z m -11.25932,0.97063 -0.38825,0.38825 0.0971,0.0971 0.29119,-0.48532 z m 9.12394,-0.7765 -3.6884,0 3.49427,0.0971 0.19413,-0.0971 z m -40.47533,-92.50116 0,0.0971 -4.07665,6.79442 0.38826,5.2414 -5.5326,6.11498 1.45595,1.74714 -3.6884,15.5301 1.74713,3.30014 -0.97063,0.67944 0.0971,2.13539 0,0.67944 2.23246,5.24141 -0.19413,3.20309 3.59134,4.36784 -7.3768,12.6182 -1.16476,7.57092 -2.03832,3.00896 1.35888,3.49427 -1.26182,1.26182 33.48678,-3.68839 -1.16476,4.65903 4.27078,8.34742 2.23245,2.81483 0,-0.0971 3.59133,-4.07665 7.57093,-1.65007 6.98854,0.7765 1.06769,-1.35888 0,-0.0971 -4.95021,-29.89545 -0.19413,-21.8392 -0.58238,-39.79588 -1.35888,-0.87356 -0.38826,-0.77651 -0.19412,0 -4.85316,0.67944 -8.54155,1.16476 -19.41263,2.42658 -2.13539,0.19412 z"
     style="stroke-width:0.97063118000000004;fill:#f9f9f9" />
  <path
     inkscape:connector-curvature="0"
     id="SC"
     data-name="South Carolina"
     data-id="SC"
     d="m 801.49611,330.48224 0,0 -2.71777,5.33847 0.48532,1.94126 8.83274,3.6884 4.56197,5.82379 18.73318,15.72422 4.36784,2.03833 7.95918,11.35638 5.82378,5.43554 0,0 0.97063,-4.4649 -1.55301,-4.27078 4.17372,3.10602 2.32951,-1.8442 -3.97959,-3.30015 4.85316,-0.29119 7.57092,-6.40616 -0.87356,-1.65008 4.65903,-3.59133 -0.48532,-1.74714 3.39721,-2.13539 0.19413,-4.95022 5.33847,-9.90043 3.59133,-4.56197 0.38826,-0.19413 -21.64508,-13.6859 -8.05624,1.55301 -10.96813,-0.38825 -5.43554,-2.81483 -32.22495,10.19163 -0.29119,0 z"
     style="stroke-width:0.97063118000000004;fill:#f9f9f9" />
  <path
     inkscape:connector-curvature="0"
     id="IL"
     data-name="Illinois"
     data-id="IL"
     d="m 661.43403,198.18521 -0.19413,0.48531 3.6884,2.32952 1.16476,2.32951 3.88252,3.6884 -0.0971,3.10602 -2.13539,6.11498 -4.85316,3.49427 -4.36784,0.87357 -0.87357,5.04728 1.45595,0.67944 -1.45595,9.90044 -3.59133,2.23245 0.67944,3.78546 -0.87357,0.38825 0,0 -0.7765,4.27078 3.10602,8.63862 11.06519,9.31806 0.97063,4.4649 2.13539,2.23245 6.98855,-0.38825 -1.26182,6.50323 -0.48532,6.98855 4.17372,3.3972 6.60029,2.9119 3.49427,2.71777 1.94126,5.53259 -1.06769,2.03833 6.89148,5.62966 0.29119,0.0971 -0.58238,-0.58238 1.94126,-4.56196 7.47386,2.03832 1.8442,-2.13539 -1.45594,-4.27077 6.11497,-3.59134 -1.65007,-2.32951 1.45595,-3.30015 0,-0.29119 -0.38826,-0.0971 0.0971,-8.63862 2.13539,-1.55301 3.68839,-8.63862 -0.7765,-3.78546 -2.42658,-4.56196 1.35888,-5.14435 -6.79441,-47.85212 -0.97064,-1.06769 -2.52364,-5.72673 -2.03832,-2.13539 -0.87357,-5.62966 0,-0.19412 -13.10352,1.8442 -7.86211,0.97063 -21.15976,2.42658 0,0 z"
     style="stroke-width:0.97063118000000004;fill:#f9f9f9" />
  <path
     inkscape:connector-curvature="0"
     id="IN"
     data-name="Indiana"
     data-id="IN"
     d="m 750.34384,200.22353 -14.85065,2.62071 -3.39721,0.67944 -12.03583,1.94126 -2.52364,2.03833 -3.78546,1.74713 -1.45595,-0.0971 -1.74714,-0.87357 -0.58237,-0.58238 6.79441,47.85212 -1.35888,5.14435 2.42658,4.56196 0.7765,3.78546 -3.68839,8.63862 -2.13539,1.55301 -0.0971,8.63862 0.38826,0.0971 0.38825,-0.0971 1.45595,-2.71777 3.59133,0 4.36784,-1.45595 5.43554,2.03833 0.58237,-2.23245 3.10602,-2.32952 4.65903,0.67945 2.52365,-4.95022 6.89148,0.58237 -0.0971,-2.81483 6.11498,-8.05623 -0.97063,-3.6884 4.27078,-0.0971 5.2414,-4.17371 -1.26182,-4.75609 0.19413,-0.19413 -0.19413,-1.65007 -5.82378,-34.36035 -2.62071,-14.65653 -0.29119,-1.55301 -0.29119,-1.26182 z"
     style="stroke-width:0.97063118000000004;fill:#f9f9f9" />
  <path
     inkscape:connector-curvature="0"
     id="KY"
     data-name="Kentucky"
     data-id="KY"
     d="m 693.17367,317.18459 -0.29119,-0.7765 -0.58238,-0.19413 -0.38825,1.26182 0.0971,0.0971 1.06769,-0.0971 0.0971,-0.29119 z m 66.39117,-63.47928 -0.19413,0.19413 1.26182,4.75609 -5.2414,4.17371 -4.27078,0.0971 0.97063,3.6884 -6.11498,8.05623 0.0971,2.81483 -6.89148,-0.58237 -2.52365,4.95022 -4.65903,-0.67945 -3.10602,2.32952 -0.58237,2.23245 -5.43554,-2.03833 -4.36784,1.45595 -3.59133,0 -1.45595,2.71777 -0.38825,0.0971 0,0.29119 -1.45595,3.30015 1.65007,2.32951 -6.11497,3.59134 1.45594,4.27077 -1.8442,2.13539 -7.47386,-2.03832 -1.94126,4.56196 0.58238,0.58238 0.19413,0.38826 -0.87357,7.95917 -0.38826,0.19413 -2.52364,1.55301 -0.0971,0.29119 2.81483,-0.38826 19.60675,-2.6207 -0.97063,-3.88252 3.30015,-0.0971 39.50469,-5.24141 27.76005,-4.65903 0.38825,-0.29119 0.67944,-0.7765 7.27974,-3.88252 5.62966,-7.3768 0.7765,-2.52364 3.6884,-2.9119 4.65903,-5.92085 0.67944,-0.97063 -0.29119,-0.0971 -2.42657,0 -3.10602,-1.74714 -5.5326,-6.69735 -1.94126,-6.79442 0,-0.19413 -0.19413,-0.19412 -4.07665,-2.32952 -1.8442,-3.10602 -3.6884,3.59134 -2.32951,0.58238 -2.9119,-1.16476 -2.52364,1.94126 -5.24141,-2.32951 -1.35888,0.58237 -4.95022,-4.27077 -2.52364,-1.26182 -4.75609,0.58238 -0.77651,0.7765 z"
     style="stroke-width:0.97063118000000004;fill:#f9f9f9" />
  <path
     inkscape:connector-curvature="0"
     id="NC"
     data-name="North Carolina"
     data-id="NC"
     d="m 890.2118,332.22937 -1.06769,1.0677 0.19412,0.19413 0.87357,-1.26183 z m 0.7765,-5.62966 -0.48531,0.77651 0.19413,0.7765 0.29118,-1.55301 z m 5.82379,-9.02687 -1.45594,0.97063 -0.77651,1.16476 2.23245,-2.13539 z m 12.52114,-6.11497 -0.58237,-0.38826 -1.26182,-0.0971 1.84419,0.48532 z m -2.6207,-0.58238 -0.87357,0 -1.45594,0.7765 2.32951,-0.7765 z m 3.00896,1.06769 2.81483,-6.98854 -1.94126,2.91189 -0.87357,4.07665 z m 4.17371,-9.22099 1.26182,-1.8442 -0.67944,0 -0.58238,1.8442 z m 8.1533,-7.57093 -2.13539,-10.774 1.8442,5.62966 0.29119,5.14434 z m -11.8417,-24.55697 -0.19412,0.0971 -0.29119,0.0971 0,0 0.0971,0 5.33847,9.02687 4.17372,4.17371 -9.12394,-13.39471 0,0 z m -1.74713,0.58238 -0.77651,0.19413 0,0 0.19413,0.0971 1.65007,0 -0.19413,-0.58238 0,0 -0.29118,0.0971 -0.29119,0 0,0 0,0.19412 -0.19413,0.0971 -0.0971,-0.0971 0,0 z m -89.78339,22.13039 -0.48532,1.45595 0.0971,4.17371 -1.0677,-0.0971 -2.52364,5.14435 -2.81483,0.29119 -5.24141,5.14434 -2.32951,-0.87357 -3.00896,4.46491 -7.95917,7.18267 -3.88253,0.97063 -4.07665,3.78546 -0.19413,2.52364 -3.59133,1.94126 0.0971,4.27078 0,0.97063 1.26182,-0.29119 13.58884,-2.81483 3.6884,-0.7765 1.26182,-0.29119 0.29119,0 32.22495,-10.19163 5.43554,2.81483 10.96813,0.38825 8.05624,-1.55301 21.64508,13.6859 0.38825,-0.29119 9.9975,-4.07665 0.0971,-5.33847 3.59134,-6.50323 3.88252,-3.6884 8.05624,-5.33847 1.0677,-1.94126 2.13538,0.97063 0.97064,-6.40616 -1.16476,2.23245 -4.07665,1.35888 -3.88253,0.0971 4.7561,-3.49427 -1.45595,-1.55301 1.65007,-3.49427 -9.12393,-1.45595 -0.38825,-0.48531 7.76505,-1.45595 2.52364,1.26182 3.20308,-0.29119 2.6207,-1.94126 1.94127,-3.78546 1.74713,-0.48532 -0.29119,-5.33847 -2.23245,-2.13539 -2.23245,2.03833 0.48531,5.14434 -1.65007,-6.3091 -1.26182,-0.29119 -9.60925,3.97959 4.27078,-4.17372 0.19413,-1.65007 4.4649,-1.06769 1.26182,-3.30015 3.00896,1.74714 -3.20309,-4.7561 -2.23245,-1.94126 0,0 -38.82525,11.0652 -24.75109,6.3091 -25.04229,4.65903 -0.0971,-0.19413 z"
     style="stroke-width:0.97063118000000004;fill:#f9f9f9" />
  <path
     inkscape:connector-curvature="0"
     id="OH"
     data-name="Ohio"
     data-id="OH"
     d="m 818.19096,206.6297 -2.42657,-10.48282 -0.48532,-2.13539 -2.71777,-11.93876 -3.49427,2.23245 -7.47386,5.72672 -4.85315,5.92085 -3.78547,0.58238 -6.98854,3.97959 -3.88253,-2.32951 -11.74463,-1.35889 0,0 -6.21204,1.55301 -6.11498,1.45595 -6.40617,1.35888 -0.97063,0.29119 0.29119,1.55301 2.62071,14.65653 5.82378,34.36035 0.19413,1.65007 0.77651,-0.7765 4.75609,-0.58238 2.52364,1.26182 4.95022,4.27077 1.35888,-0.58237 5.24141,2.32951 2.52364,-1.94126 2.9119,1.16476 2.32951,-0.58238 3.6884,-3.59134 1.8442,3.10602 4.07665,2.32952 0.19413,0.19412 0,0 4.17371,-2.03832 1.45595,-3.20309 -1.16476,-3.30014 3.30014,-5.04728 2.42658,-0.38826 -0.29119,-4.27077 3.97959,-5.43554 0.67944,0.77651 3.59134,-2.71777 3.10602,-4.65903 0.48531,-21.25682 0.19413,-0.0971 -0.48532,-2.03832 z"
     style="stroke-width:0.97063118000000004;fill:#f9f9f9" />
  <path
     inkscape:connector-curvature="0"
     id="TN"
     data-name="Tennessee"
     data-id="TN"
     d="m 786.2572,300.48973 -27.76005,4.65903 -39.50469,5.24141 -3.30015,0.0971 0.97063,3.88252 -19.60675,2.6207 -2.81483,0.38826 0,0.0971 -0.7765,0.97063 -0.38826,-0.0971 0,-0.77651 0,-0.0971 -1.06769,0.0971 0.0971,0.0971 0.58238,2.71776 -1.94126,2.42658 -0.19413,4.46491 0,0.7765 0,0.0971 -2.91189,5.62966 0.58238,3.97959 -2.71777,4.27078 0.97063,3.88252 -3.49427,3.20309 0.19412,0.19412 2.13539,-0.19412 19.41263,-2.42658 8.54155,-1.16476 4.85316,-0.67944 0.19412,0 -0.0971,-0.19413 16.30661,-2.23245 7.76504,-0.97063 15.5301,-2.52364 2.9119,-0.48532 1.74713,-0.19412 8.25037,-1.55301 2.03832,-0.38825 7.57093,-1.45595 1.35888,-0.19413 0,-0.97063 -0.0971,-4.27078 3.59133,-1.94126 0.19413,-2.52364 4.07665,-3.78546 3.88253,-0.97063 7.95917,-7.18267 3.00896,-4.46491 2.32951,0.87357 5.24141,-5.14434 2.81483,-0.29119 2.52364,-5.14435 1.0677,0.0971 -0.0971,-4.17371 0.48532,-1.45595 -1.55301,0.29119 -5.5326,1.55301 -6.60029,1.35889 -16.59779,3.39721 -1.74714,0.29118 -0.38825,0.29119 z"
     style="stroke-width:0.97063118000000004;fill:#f9f9f9" />
  <path
     inkscape:connector-curvature="0"
     id="VA"
     data-name="Virginia"
     data-id="VA"
     d="m 908.75086,270.98255 0.29119,0 0.29118,-0.0971 0,0 -0.19412,-0.48531 -0.38825,0.58238 0,0 z m -3.30015,-10.87107 0,0.48531 0.48532,-0.29119 -0.48532,-0.19412 z m 1.74714,-3.39721 -0.0971,-0.77651 0,0 0.0971,0.77651 z m -0.58238,1.16475 -0.19413,1.26183 -0.29119,0.48531 0.48532,-1.74714 z m 0.87357,-2.52364 0.0971,-0.58238 -0.19413,0.58238 0.0971,0 z m 0.58237,-2.6207 0.29119,-0.67944 -0.48531,1.74713 0.19412,-1.06769 z m 0.0971,-1.45595 0.38825,-2.13539 -0.48532,0.48532 0.0971,1.65007 z m 1.74713,-9.60925 0.19413,-0.87356 -0.0971,0.19412 -0.0971,0.67944 z m -0.38825,-2.23245 -1.26182,0.48532 -1.94126,0.87357 -0.67944,0.87356 0.29119,0.0971 -2.32952,14.4624 0.87357,2.32952 1.35888,-6.01792 2.52364,-7.86211 1.16476,-5.14435 0,-0.0971 z m 1.94126,-0.7765 -0.29119,0.0971 -0.0971,0.38825 -0.48531,3.00896 0.38825,-1.0677 0.48531,-2.42657 z m -101.43096,37.17517 -0.67944,0.97063 -4.65903,5.92085 -3.6884,2.9119 -0.7765,2.52364 -5.62966,7.3768 -7.27974,3.88252 -0.67944,0.7765 1.74714,-0.29118 16.59779,-3.39721 6.60029,-1.35889 5.5326,-1.55301 1.55301,-0.29119 0.0971,0.19413 25.04229,-4.65903 24.75109,-6.3091 38.82525,-11.0652 0,0 -0.29119,-0.48531 -0.0971,-0.29119 0.67944,0.67944 0,0 0,0 0.77651,-0.19413 -0.0971,-0.0971 -0.67944,-3.30015 0.48532,0.0971 1.55301,2.91189 0,0 0,0 0.29119,-0.0971 0.19412,-0.0971 -0.38825,-0.7765 -3.97959,-6.11498 -4.95022,0.87357 -2.23245,1.8442 -2.13539,-1.94126 -7.27973,-2.42658 -5.04728,-0.19413 9.80337,-0.87357 5.43554,3.6884 1.55301,-2.42658 -4.36784,-5.53259 3.10602,0.19412 -1.65008,-4.4649 -3.88252,0.19413 -9.221,-7.47386 -1.16476,0 13.00646,6.40616 -0.87357,-4.4649 0.87357,-1.45595 -6.60029,-2.52364 -5.72672,-0.38825 -2.81483,-2.52364 -2.32952,1.45594 -0.87357,-6.69735 0.97063,0.19412 -0.19412,-5.43553 -0.19413,-0.19413 -0.19413,0.0971 -0.19412,-0.0971 -0.48532,-0.38825 -0.29119,-0.29119 -3.10602,-1.35888 -3.20308,-2.32952 -4.4649,-1.16475 -0.29119,-0.0971 0,0.0971 -0.58238,4.07665 -9.02687,-3.88253 0.19413,5.62966 -4.95022,9.41513 -3.00896,3.30014 -1.94126,5.72673 -5.92085,-2.03833 -2.9119,13.20058 -2.32951,4.46491 -0.38825,5.82379 -1.74714,2.81483 -6.50323,1.94126 -5.33847,4.17371 -2.52364,0.38825 -2.42658,2.13539 -6.11498,-2.23245 -1.06769,-3.00896 -0.19413,-0.0971 z"
     style="stroke-width:0.97063118000000004;fill:#f9f9f9" />
  <path
     inkscape:connector-curvature="0"
     id="WI"
     data-name="Wisconsin"
     data-id="WI"
     d="m 705.79187,134.80299 -2.42658,3.00896 -1.45594,4.36784 0.67944,2.42657 3.20308,-9.80337 z m -55.71423,-22.80983 1.45595,-2.03833 -1.0677,0.97063 -0.38825,1.0677 z m 2.23245,-3.20309 -0.48531,-0.58238 -1.0677,0.67945 1.55301,-0.0971 z m -21.15976,5.43554 -2.23245,2.52364 1.0677,11.64757 -6.21204,5.62966 -1.16476,5.43554 3.39721,3.10602 -0.97063,13.39471 3.59133,2.71777 2.32952,0.19412 7.37679,4.46491 4.65903,4.85315 5.92085,3.00896 1.35889,7.47386 0,0.48531 0,0 2.81483,3.39721 -0.77651,2.62071 0.97063,5.72672 2.9119,3.97959 5.33847,2.81483 -0.0971,0.48532 0,0 21.15976,-2.42658 7.86211,-0.97063 13.10352,-1.8442 -0.38825,-1.45595 0,-4.56197 -2.62071,-4.85315 -0.67944,-6.11498 1.26182,-6.79442 -0.67944,-5.24141 2.32952,-6.50322 -0.87357,-1.0677 0.19412,-6.01791 1.26182,-4.56197 -1.45594,-1.55301 -2.81483,0.97063 -1.55301,4.07665 -3.6884,2.13539 1.16476,-5.14434 3.30014,-4.36784 0.19413,-1.94127 0.0971,-0.0971 -4.65903,-4.65903 0,-6.60029 -5.24141,-4.27078 -7.18267,-0.48531 -7.3768,-1.94127 -15.91835,-4.85315 -3.10602,-1.74714 -0.29119,0.29119 -4.95022,-0.67944 -1.65007,0.97063 0.67944,-7.08561 -7.95917,4.07665 -9.70631,1.55301 -0.0971,-0.19412 z m 19.02437,-5.14435 -0.19412,-0.67944 -0.67944,0.29119 0.87356,0.38825 z m -3.49427,-0.67944 0.29119,-0.58238 -0.19413,-0.19413 -0.0971,0.77651 z m 7.08561,-1.65007 -0.29119,-1.35889 -0.29119,1.65008 0.58238,-0.29119 z"
     style="stroke-width:0.97063118000000004;fill:#f9f9f9" />
  <path
     inkscape:connector-curvature="0"
     id="WV"
     data-name="West Virginia"
     data-id="WV"
     d="m 836.73002,223.71281 -13.78296,3.39721 -4.27078,-18.442 0,0 -0.19413,0.0971 -0.48531,21.25682 -3.10602,4.65903 -3.59134,2.71777 -0.67944,-0.77651 -3.97959,5.43554 0.29119,4.27077 -2.42658,0.38826 -3.30014,5.04728 1.16476,3.30014 -1.45595,3.20309 -4.17371,2.03832 0,0 0,0.19413 1.94126,6.79442 5.5326,6.69735 3.10602,1.74714 2.42657,0 0.29119,0.0971 0.19413,0.0971 1.06769,3.00896 6.11498,2.23245 2.42658,-2.13539 2.52364,-0.38825 5.33847,-4.17371 6.50323,-1.94126 1.74714,-2.81483 0.38825,-5.82379 2.32951,-4.46491 2.9119,-13.20058 5.92085,2.03833 1.94126,-5.72673 3.00896,-3.30014 4.95022,-9.41513 -0.19413,-5.62966 9.02687,3.88253 0.58238,-4.07665 0,-0.0971 0,0 -2.81483,-4.85315 -5.82379,-0.67945 -3.39721,2.62071 0,1.94126 -2.91189,0.67944 -4.27078,3.00896 -2.23245,0.48532 -4.46491,6.3091 -2.23245,-10.19163 -1.94126,0.48532 z"
     style="stroke-width:0.97063118000000004;fill:#f9f9f9" />
  <path
     inkscape:connector-curvature="0"
     id="DE"
     data-name="Delaware"
     data-id="DE"
     d="m 893.80314,207.69739 0.38825,1.45595 8.05624,23.00396 9.22099,-2.71777 -0.0971,-0.19413 0.19413,0 0.29119,0.0971 0,0 0.19412,-0.0971 -0.19412,-0.38825 -2.32952,-6.21204 -11.35638,-10.774 0.48531,-7.47386 0,0 -2.32951,0 -1.74714,1.35888 -0.7765,1.94126 0,0 z"
     style="stroke-width:0.97063118000000004;fill:#f9f9f9" />
  <path
     inkscape:connector-curvature="0"
     id="DC"
     data-name="District of Columbia"
     data-id="DC"
     d="m 878.17597,229.14834 0.48532,0.38825 0.19412,0.0971 0.19413,-0.0971 0.19413,0.0971 0.67944,0.38825 0.19413,0.29119 0,0.67944 0.19412,0.38825 1.26182,-2.32951 -1.35888,-0.77651 -1.65007,0.0971 -0.38826,0.7765 z"
     style="stroke-width:0.97063118000000004;fill:#f9f9f9" />
  <path
     inkscape:connector-curvature="0"
     id="MD"
     data-name="Maryland"
     data-id="MD"
     d="m 911.56569,238.27227 0.67944,-5.2414 -0.58238,3.88252 -0.38825,1.65007 -0.0971,0.19413 0.29119,-0.0971 0.0971,-0.38826 z m 0.48531,-9.02687 -0.19412,0.0971 0.19412,0.58238 0,1.16475 0,-1.8442 0,0 z m -73.37972,-6.01791 2.23245,10.19163 4.46491,-6.3091 2.23245,-0.48532 4.27078,-3.00896 2.91189,-0.67944 0,-1.94126 3.39721,-2.62071 5.82379,0.67945 2.81483,4.85315 0,0 0.29119,0.0971 4.4649,1.16475 3.20308,2.32952 3.10602,1.35888 0.29119,0.29119 0.38826,-0.7765 1.65007,-0.0971 1.35888,0.77651 -1.26182,2.32951 0,0.0971 -1.8442,5.62966 6.01792,3.88252 6.01791,0.29119 3.97959,1.8442 -1.65008,-4.65903 -5.14434,-1.74714 -1.26182,-3.97958 3.20308,4.27077 2.62071,0.38826 -2.32952,-2.32952 -1.8442,-6.89148 0.48532,-3.97959 -2.03833,-4.36784 2.13539,-1.74713 1.55301,-5.62967 -0.58238,8.34743 1.65007,2.81483 1.55301,-3.30014 0.87357,5.43553 -1.65007,3.97959 4.75609,1.74714 -4.07665,1.35888 2.13539,3.97959 3.49427,1.16475 1.94126,-3.3972 -0.19412,4.75609 3.30014,-0.0971 2.13539,2.42657 0.0971,0 0.67944,-0.87356 1.94126,-0.87357 1.26182,-0.48532 -0.0971,-0.19412 2.52364,-7.47386 0,-0.29119 -0.48532,-1.94127 0,-0.0971 -9.22099,2.71777 -8.05624,-23.00396 -0.38825,-1.45595 -1.65008,0.48532 -6.89148,2.13539 -37.95168,10.57988 -6.89148,1.8442 -1.74714,0.48531 z"
     style="stroke-width:0.97063118000000004;fill:#f9f9f9" />
  <path
     inkscape:connector-curvature="0"
     id="NJ"
     data-name="New Jersey"
     data-id="NJ"
     d="m 916.80709,207.30914 -0.48531,-1.16476 0,1.16476 0.48531,0 z m 0.97064,-3.59134 0.29119,-2.91189 -0.58238,2.52364 0.29119,0.38825 z m -3.97959,-29.79837 -10.19163,-2.52365 -1.74714,-0.48531 -1.65007,-0.38825 0,0 -4.07665,9.02687 1.74714,2.13539 -0.0971,6.50322 1.8442,0.29119 3.78546,9.90044 -0.19412,0.29119 -4.75609,6.98855 0.48531,5.33847 11.45345,3.88252 0.0971,4.46491 2.62071,-3.6884 0.38825,-5.33847 2.71777,-1.8442 -1.0677,-3.97959 2.03833,-4.75609 0,-10.38576 -0.67944,-3.39721 -4.56197,0.0971 1.16476,-4.65903 0.67944,-7.47386 0,0 z"
     style="stroke-width:0.97063118000000004;fill:#f9f9f9" />
  <path
     inkscape:connector-curvature="0"
     id="NY"
     data-name="New York"
     data-id="NY"
     d="m 913.50695,181.78154 -1.45595,2.03832 -0.38825,0.58238 1.8442,-2.6207 z m 13.39471,-4.75609 4.85316,-4.27078 0,-0.19413 -4.85316,4.46491 z m -12.71527,3.00895 0,-3.30014 -0.29119,1.74713 0.29119,1.55301 z m 22.51864,-15.5301 -1.16475,-0.29119 -0.19413,0.87357 1.35888,-0.58238 z m 2.62071,-1.74713 -0.0971,0.97063 0.19412,-0.58238 -0.0971,-0.38825 z m -2.71777,0.0971 -6.50323,6.01791 -9.9975,4.27078 -2.6207,2.23245 -0.19413,2.13539 -2.71777,2.23245 0.38826,2.9119 4.17371,-1.65008 6.11498,-4.95022 6.79441,-3.59133 10.2887,-9.70631 -7.27974,5.53259 -2.32951,0.97064 3.88252,-6.40617 z m 3.00896,-4.07665 0.38825,-0.58238 -1.16476,1.35888 0.77651,-0.7765 z m -109.09895,-3.59134 -1.55301,-0.19412 1.16476,1.55301 0.38825,-1.35889 z m 32.22496,-29.70131 0.19412,-1.0677 -0.7765,0.97064 0.58238,0.0971 z m 0.48531,-6.98855 -0.38825,0.19413 -0.48532,1.06769 0.87357,-1.26182 z m -41.0577,55.13186 0.67944,2.91189 5.14435,1.26182 29.50719,-8.05624 29.70131,-8.92981 5.43554,4.17372 1.06769,2.42658 6.3091,2.71776 0.19413,0.38826 1.65007,0.38825 1.74714,0.48531 10.19163,2.52365 -0.19413,-0.48532 0.87357,3.97959 1.94126,-0.48532 1.0677,-4.36784 0,-0.0971 -1.74714,-1.65007 2.52364,-3.10602 -1.16476,-1.45595 -3.68839,-14.26828 -0.19413,-0.97063 -0.48532,-0.29119 -0.29119,-4.27078 -0.29119,-4.65903 -0.29118,-5.04728 0,-0.29119 -0.19413,0.0971 -4.85316,-15.91835 -5.14434,-8.05624 -1.45595,-9.60924 -4.36784,-10.191633 -0.58238,0.29119 -20.28619,6.794418 -4.07665,4.367845 -4.56197,8.73568 0.19413,1.94126 -6.01791,9.12393 3.68839,1.26182 1.0677,6.89148 -4.27078,5.62967 -12.81233,7.76504 -2.42658,-0.97063 -9.51218,1.35889 -8.83275,5.33847 0.48532,2.81483 3.10602,2.71777 -1.74714,8.54155 -6.98854,8.1533 -0.0971,0.0971 z"
     style="stroke-width:0.97063118000000004;fill:#f9f9f9" />
  <path
     inkscape:connector-curvature="0"
     id="PA"
     data-name="Pennsylvania"
     data-id="PA"
     d="m 900.01517,170.13396 -6.3091,-2.71776 -1.06769,-2.42658 -5.43554,-4.17372 -29.70131,8.92981 -29.50719,8.05624 -5.14435,-1.26182 -0.67944,-2.91189 -1.65007,1.26182 -2.6207,1.8442 -4.7561,4.85315 -0.58238,0.48532 2.71777,11.93876 0.48532,2.13539 2.42657,10.48282 0.48532,2.03832 0,0 4.27078,18.442 13.78296,-3.39721 1.94126,-0.48532 1.74714,-0.48531 6.89148,-1.8442 37.95168,-10.57988 6.89148,-2.13539 1.65008,-0.48532 0,0 0.7765,-1.94126 1.74714,-1.35888 2.32951,0 0.29119,-0.87357 3.78546,-4.27078 0.38825,-0.67944 0.29119,-0.19413 -3.78546,-9.90044 -1.8442,-0.29119 0.0971,-6.50322 -1.74714,-2.13539 4.07665,-9.02687 0,0 -0.19413,-0.38826 z"
     style="stroke-width:0.97063118000000004;fill:#f9f9f9" />
  <path
     inkscape:connector-curvature="0"
     id="ME"
     data-name="Maine"
     data-id="ME"
     d="m 946.7996,118.39932 -0.0971,0 0.19412,0.0971 -0.0971,-0.0971 z m 7.18267,-20.674443 -0.77651,-1.164758 0,0.582379 0.77651,0.582379 z m -1.35888,-1.067695 0,-0.970631 -0.0971,-0.582379 0.0971,1.55301 z m 3.49427,-4.076651 -0.19413,-0.09706 0.0971,0.291189 0.0971,-0.194126 z m 9.70631,-4.853156 -0.19413,-1.455947 -0.38825,0.679442 0.58238,0.776505 z m -2.42658,0.582379 0.0971,-1.067694 -1.16476,0.194126 1.06769,0.873568 z m 3.59134,-3.203083 -0.38825,0 0,0.194126 0.38825,-0.194126 z m -4.85316,1.455947 -0.87357,-0.194126 -0.0971,0.873568 0.97063,-0.679442 z m 4.95022,-3.008957 0.87357,0.679442 -0.29119,-0.776505 -0.58238,0.09706 z m -2.6207,0.09706 -0.87357,1.650073 1.16476,-0.582379 -0.29119,-1.067694 z m -4.17372,0.09706 -0.38825,0.582379 0.29119,0.873568 0.0971,-1.455947 z m 5.72673,-3.203083 -0.0971,-0.776505 -0.29119,0.485316 0.38826,0.291189 z m -0.48532,0.388253 -0.87357,-0.776505 0,0.679442 0.87357,0.09706 z m -5.43553,2.232452 -0.19413,-1.067695 -0.38825,0.873568 0.58238,0.194127 z m 9.22099,-3.39721 -1.45594,2.135389 -0.0971,-1.55301 1.55301,-0.582379 z m 7.08561,-6.503229 -0.67944,-0.970631 -0.38825,0.194126 1.06769,0.776505 z m 2.6207,-4.36784 -0.58237,-0.291189 -0.0971,0.291189 0.67944,0 z m 1.26183,-7.570923 -0.87357,0 0.97063,0.291189 -0.0971,-0.291189 z m 1.45594,0.970631 -0.29119,-1.747136 -0.7765,-0.09706 1.06769,1.8442 z m -1.55301,-1.55301 -0.19412,-1.844199 -0.67945,1.26182 0.87357,0.582379 z m -56.29661,15.23891 14.07415,33.001458 0.19413,0.67944 6.11498,7.47386 0,-0.0971 0.97063,-0.29119 0.19413,-5.5326 1.55301,-1.94126 0.97063,-5.14435 -0.87357,-0.87357 1.65007,-5.047274 5.62966,-2.620704 3.6884,-4.464904 1.35888,-7.765049 5.92085,-0.388253 -0.7765,-3.979588 7.3768,-2.81483 0.48531,-4.36784 1.74714,0.388252 4.85315,-3.979588 2.13539,-5.144345 -4.95022,-4.950219 -5.2414,-1.067695 -1.94127,-3.979588 0,-2.329515 -3.20308,0.970632 -3.59134,-1.261821 0,-3.979588 -9.70631,-20.965634 -7.0856,-3.688398 -7.86212,6.600292 -2.13539,-0.388253 -1.8442,-3.397209 -2.52364,0.970631 -3.59133,17.859614 1.26182,5.823788 1.06769,11.8417 -2.81483,9.123934 1.94126,1.455946 -2.32951,4.464904 -2.52364,-0.388253 -0.19413,0.194127 z"
     style="stroke-width:0.97063118000000004;fill:#f9f9f9" />
  <path
     inkscape:connector-curvature="0"
     id="MI"
     data-name="Michigan"
     data-id="MI"
     d="m 719.96309,138.2002 -0.48532,-0.77651 -0.0971,0.97063 0.58238,-0.19412 z m 1.55301,-1.74714 -1.16476,-1.55301 -0.19413,0.67944 1.35889,0.87357 z m 0.97063,-6.98854 -0.97063,-0.87357 0,0.19412 0.97063,0.67945 z m -2.42658,76.00042 12.03583,-1.94126 3.39721,-0.67944 14.85065,-2.62071 0.29119,1.26182 0.97063,-0.29119 6.40617,-1.35888 6.11498,-1.45595 6.21204,-1.55301 -0.0971,-0.29119 3.20309,-6.3091 -0.29119,-5.24141 3.59133,-9.02687 2.81483,1.65007 1.0677,-2.03832 -0.29119,-7.76505 -2.62071,-4.85316 -3.88252,-10.28869 -3.39721,-3.78546 -1.74714,-0.48531 -6.3091,4.36784 0.67944,0.87356 -3.30014,6.21204 -3.20309,-0.58238 -0.97063,-6.50322 1.35889,-0.48532 2.81483,-6.50323 0.29119,-11.45345 -4.36784,-9.70631 -9.70632,-1.65007 -0.97063,-1.45595 -9.02687,-2.6207 -4.07665,5.04728 0.38825,4.36784 -3.10602,3.88252 0.67945,6.01792 -3.00896,2.13539 0,-7.57093 -2.71777,5.72673 -3.20308,5.04728 -2.13539,1.65007 1.06769,5.33847 -1.35888,5.5326 0.77651,6.89148 -0.97064,3.39721 6.98855,13.39471 0.87357,5.14435 -0.87357,9.51218 -4.65903,10.67695 -0.58238,0.38825 z m 20.77151,-87.45387 -2.52364,0.19412 1.55301,1.16476 0.97063,-1.35888 z m -14.7536,2.52364 -0.7765,0 0.87357,0.38825 -0.0971,-0.38825 z m 16.98605,-12.32702 -0.97063,-1.55301 -0.38825,0.0971 1.35888,1.45594 z m -87.93919,7.08561 3.10602,1.74714 15.91835,4.85315 7.3768,1.94127 7.18267,0.48531 5.24141,4.27078 0,6.60029 4.65903,4.65903 0,-0.0971 3.78546,-10.96814 4.56197,-3.20308 3.49427,-3.88252 0.58238,3.49427 3.59134,-5.5326 8.63861,-3.30014 0.67945,-1.35889 8.73568,1.0677 3.39721,1.74713 1.65007,-4.27077 1.55301,0.97063 6.79442,-1.0677 -1.65008,-2.71777 -3.00895,-1.74713 0.58238,-6.3091 -5.92085,3.30014 -5.43554,-0.67944 -1.74714,-4.17371 0.58238,-1.358888 -7.37679,3.494268 -4.7561,0.29119 -8.54155,5.24141 -0.97063,1.94126 -5.24141,-1.26182 -3.30015,1.45595 -6.60029,-5.72672 -14.65653,-4.46491 -0.29119,-1.747133 -9.41512,9.026873 -5.33847,1.35888 -7.57093,5.72673 -0.29119,0.19412 z m 34.36035,-22.033327 -11.35639,5.629661 3.78546,3.688396 1.45595,-3.688396 3.88253,-4.756093 2.23245,-0.873568 z M 676.77,79.962326 l -7.76505,5.338471 -0.38825,2.620704 6.11497,-4.464903 2.03833,-3.494272 z"
     style="stroke-width:0.97063118000000004;fill:#f9f9f9" />
  <path
     inkscape:connector-curvature="0"
     id="AK"
     data-name="Alaska"
     data-id="AK"
     d="M 159.03532,548.77728 L 159.13242,548.58315 L 158.93829,548.48605 L 159.03539,548.77724 z M 156.60874,547.90371 L 153.21153,550.91266 L 155.63811,550.71854 L 158.45294,548.48609 L 156.60874,547.90371 z M 162.72372,548.97140 L 162.04427,548.77728 L 162.52959,549.16553 L 162.72372,548.97140 z M 164.08260,549.06850 L 163.01490,548.77732 L 162.82078,548.87442 L 164.08260,549.06854 z M 160.39420,547.70962 L 159.32651,547.70962 L 161.17071,548.19494 L 160.39420,547.70962 z M 164.85910,548.68025 L 164.76200,548.48613 L 164.37375,548.58323 L 164.85906,548.68033 z M 161.94721,547.51549 L 161.55896,547.32137 L 161.55896,548.38906 L 161.94721,547.51549 z M 174.37129,549.94207 L 174.27419,549.84497 L 174.08006,549.84497 L 174.37125,549.94207 z M 174.56542,549.84497 L 174.56542,549.74787 L 174.37129,549.65077 L 174.56542,549.84490 z M 172.91534,549.26259 L 173.10947,549.65084 L 173.10947,549.55374 L 172.91534,549.26255 z M 173.78891,549.26259 L 172.91534,548.97140 L 173.98304,549.74791 L 173.78891,549.26259 z M 186.60124,549.74791 L 186.40712,549.35965 L 186.31002,549.35965 L 186.60121,549.74791 z M 291.04116,543.24468 L 290.84703,543.05055 L 290.94413,543.24468 L 291.04123,543.24468 z M 293.85599,541.49754 L 294.14718,541.88579 L 294.34131,541.88579 L 293.85599,541.49754 z M 187.76600,548.77728 L 187.66890,548.87438 L 187.66890,549.16557 L 187.76600,548.77732 z M 175.73017,547.03014 L 175.92430,546.25363 L 175.82720,546.25363 L 175.73010,547.03014 z M 299.48565,539.26509 L 298.61208,539.75041 L 299.38859,540.13866 L 299.48569,539.26509 z M 177.47731,546.54482 L 177.38021,546.35070 L 177.47731,546.54482 L 177.47731,546.54482 z M 170.19758,544.40943 L 167.77100,544.89475 L 165.63561,547.70958 L 170.19758,544.40943 z M 187.57187,548.09783 L 186.98950,548.58315 L 187.57187,548.48605 L 187.57187,548.09779 z M 299.48565,538.77977 L 299.29153,538.39152 L 299.19443,538.58565 L 299.48562,538.77977 z M 178.25381,545.57419 L 177.57437,545.47709 L 178.25381,546.15653 L 178.25381,545.57415 z M 293.07949,540.04159 L 292.88536,540.23572 L 293.07949,540.91516 L 293.07949,540.04159 z M 179.80682,545.47713 L 179.51564,545.57423 L 179.90389,545.86542 L 179.80679,545.47717 z M 186.98950,547.51545 L 186.69831,547.51545 L 186.50418,547.32133 L 186.98950,547.51545 z M 179.03032,545.47713 L 178.54500,545.18594 L 178.73913,545.47713 L 179.03032,545.47713 z M 185.53355,546.54482 L 184.65998,546.83601 L 184.07760,548.38902 L 185.53355,546.54482 z M 290.94410,539.75041 L 290.94410,540.42985 L 291.33235,539.94453 L 290.94410,539.75041 z M 174.08010,543.43880 L 174.85661,543.24468 L 174.75951,543.24468 L 174.08007,543.43880 z M 173.10947,542.85642 L 172.91534,542.66230 L 172.91534,542.75940 L 173.10947,542.85650 z M 290.94410,539.07096 L 290.74997,538.97386 L 290.65287,539.26505 L 290.94406,539.07092 z M 184.46585,544.89475 L 184.27173,544.79765 L 184.07760,545.08884 L 184.46585,544.89471 z M 289.97347,539.26509 L 290.07057,538.77977 L 289.87644,538.68267 L 289.97354,539.26505 z M 289.19696,538.77977 L 288.90577,539.16803 L 289.39109,539.26513 L 289.19696,538.77981 z M 188.54251,543.53587 L 188.34838,543.34174 L 188.25128,543.34174 L 188.54247,543.53587 z M 288.90577,537.03264 L 289.68228,537.32383 L 289.97347,536.93557 L 288.90577,537.03267 z M 290.07053,536.35320 L 289.77934,536.54732 L 290.26466,536.83851 L 290.07053,536.35320 z M 287.83808,536.93557 L 287.64395,536.54732 L 287.44982,536.74145 L 287.83808,536.93557 z M 297.54439,533.34424 L 296.28257,536.93557 L 297.54439,536.15907 L 297.54439,533.34424 z M 289.00283,534.70312 L 288.12927,535.57669 L 288.32339,536.54732 L 289.00283,534.70312 z M 198.63707,542.46817 L 198.63707,542.07992 L 198.53997,542.27405 L 198.63707,542.46817 z M 287.93514,533.73249 L 290.74997,538.00327 L 297.05907,541.98286 L 295.60313,538.58565 L 289.58521,533.44130 L 287.93514,533.73249 z M 194.75455,540.91516 L 194.65745,540.62397 L 194.46333,540.72107 L 194.75452,540.91519 z M 291.23529,532.08242 L 290.84703,533.53837 L 291.52648,533.05305 L 291.23529,532.08242 z M 293.27361,532.08242 L 293.17651,533.05305 L 294.05008,533.34424 L 293.27357,532.08242 z M 197.86056,539.65334 L 197.37525,539.55624 L 196.88993,539.75037 L 197.86056,539.65327 z M 207.85807,540.42985 L 207.46981,541.10929 L 207.66394,540.52691 L 207.85807,540.42981 z M 209.31401,540.52695 L 208.44044,540.62405 L 208.92576,541.20643 L 209.31401,540.52699 z M 150.49376,528.10287 L 151.46439,528.58819 L 151.27027,528.39406 L 150.49376,528.10287 z M 289.68228,530.14116 L 290.16759,531.98536 L 291.13822,531.40298 L 289.68228,530.14116 z M 285.50856,530.91766 L 285.99388,535.38256 L 286.96451,534.41193 L 285.50856,530.91766 z M 285.99388,529.46171 L 288.22633,532.56773 L 287.93514,530.52941 L 285.99388,529.46171 z M 279.10240,530.23822 L 278.52002,532.08242 L 279.29652,530.82060 L 279.10240,530.23822 z M 210.67290,535.18844 L 210.47877,534.89725 L 210.67290,535.28550 L 210.67290,535.18840 z M 279.29652,528.78227 L 283.17905,535.18844 L 282.59667,530.82060 L 279.29652,528.78227 z M 216.10843,532.17948 L 215.81724,532.47067 L 216.30256,532.66480 L 216.10843,532.17948 z M 214.84661,532.37361 L 214.94371,532.08242 L 214.55546,532.08242 L 214.84665,532.37361 z M 213.87598,532.37361 L 211.35234,534.02368 L 208.24632,538.10033 L 209.79933,539.75041 L 216.98200,534.41193 L 213.87598,532.37361 z M 275.12281,526.06451 L 274.44337,525.67625 L 274.44337,526.25863 L 275.12281,526.06451 z M 213.29360,531.20885 L 213.39070,531.59710 L 214.07015,531.98536 L 213.29364,531.20885 z M 276.96701,524.22031 L 275.02575,525.19094 L 276.86994,525.77332 L 276.96704,524.22031 z M 275.70519,524.22031 L 275.51106,524.02618 L 275.41396,524.22031 L 275.70515,524.22031 z M 281.62604,522.66730 L 280.84953,522.37611 L 280.65541,522.95849 L 281.62604,522.66730 z M 277.45232,523.34674 L 276.77288,523.24964 L 276.77288,523.44377 L 277.45232,523.34667 z M 279.58771,522.57023 L 283.56730,528.39402 L 282.49961,523.05555 L 279.58771,522.57023 z M 215.52605,528.87934 L 213.19654,530.62647 L 214.26423,531.79123 L 217.37025,529.46171 L 215.52605,528.87934 z M 188.05719,524.70562 L 187.96009,524.22031 L 187.96009,524.41443 L 188.05719,524.70562 z M 217.85557,525.96744 L 217.66144,526.06454 L 217.66144,526.16164 L 217.85557,525.96751 z M 216.88494,525.77332 L 216.78784,525.77332 L 216.59372,526.06451 L 216.88491,525.77332 z M 219.21445,524.99681 L 218.92326,524.80268 L 218.92326,524.89978 L 219.21445,524.99688 z M 219.99096,524.89971 L 219.69977,524.70558 L 219.69977,524.80268 L 219.99096,524.89978 z M 218.72914,524.60852 L 218.34088,524.60852 L 218.34088,524.70562 L 218.72914,524.60852 z M 238.04470,522.66726 L 238.14180,522.37607 L 237.94767,522.57019 L 238.04477,522.66729 z M 243.96555,519.56124 L 245.13030,518.10529 L 244.74205,518.39648 L 243.96555,519.56124 z M 232.12385,519.36711 L 232.51210,519.07592 L 232.60920,518.68767 L 232.12389,519.36711 z M 232.12385,518.29942 L 231.73559,518.59060 L 232.41504,518.39648 L 232.12385,518.29938 z M 216.20549,518.29942 L 216.10839,517.91116 L 216.01129,517.91116 L 216.20541,518.29942 z M 231.73559,518.20232 L 231.34734,518.59057 L 231.15322,518.97883 L 231.73559,518.20232 z M 242.41254,517.03756 L 242.50964,517.03756 L 242.60674,517.03756 L 242.41262,517.03756 z M 242.89785,517.03756 L 242.70373,516.94046 L 242.70373,517.03756 L 242.89785,517.03756 z M 233.77392,517.52284 L 234.16217,517.13459 L 233.67686,517.52284 L 233.77396,517.52284 z M 234.93868,516.64927 L 232.60916,520.43473 L 235.61812,516.94046 L 234.93868,516.64927 z M 231.92972,517.13459 L 231.63853,516.74634 L 231.54143,516.94046 L 231.92968,517.13459 z M 239.30652,516.26102 L 239.11239,516.16392 L 239.20949,516.26102 L 239.30659,516.26102 z M 241.83016,516.45515 L 241.83016,515.77570 L 241.63603,516.06689 L 241.83016,516.45515 z M 170.58583,508.98129 L 165.92680,508.78716 L 169.12988,512.18437 L 170.58583,508.98129 z M 236.87994,515.87277 L 237.07407,516.55221 L 237.55938,515.77570 L 236.87994,515.87280 z M 232.99741,515.77567 L 232.70622,517.91106 L 233.19154,516.55218 L 232.99741,515.77567 z M 232.02678,514.41679 L 232.12388,514.70798 L 232.31800,514.61088 L 232.02681,514.41675 z M 231.54147,514.80504 L 231.34734,514.22266 L 231.05615,514.41679 L 231.54147,514.80504 z M 236.10343,513.64029 L 236.10343,513.25203 L 235.81224,513.44616 L 236.10343,513.64029 z M 231.73559,513.05791 L 231.73559,514.02854 L 232.02678,513.34910 L 231.73559,513.05791 z M 224.35880,511.89315 L 224.35880,511.60196 L 224.35880,511.60196 L 224.35880,511.89315 z M 173.69185,499.85732 L 173.88597,499.27494 L 173.78887,499.37204 L 173.69177,499.85735 z M 173.98304,498.88669 L 173.88594,498.78959 L 173.78884,498.88669 L 173.98297,498.88669 z M 178.25381,496.16892 L 178.15671,495.97480 L 178.15671,495.97480 L 178.25381,496.16892 z M 180.58333,493.83941 L 180.19508,493.64528 L 180.19508,493.74238 L 180.58333,493.83948 z M 180.00095,493.45116 L 180.00095,493.25703 L 179.80682,493.45116 L 180.00095,493.45116 z M 164.47085,488.88919 L 164.27673,488.40387 L 164.17963,488.11269 L 164.47082,488.88919 z M 165.92680,487.14205 L 166.02390,487.14205 L 166.12100,487.23915 L 165.92688,487.14205 z M 163.30609,486.65674 L 162.52959,485.68611 L 163.11197,486.46261 L 163.30609,486.65674 z M 161.75308,485.10373 L 161.55896,485.10373 L 161.85015,485.20083 L 161.75305,485.10373 z M 161.75308,483.93893 L 161.75308,483.93893 L 161.94721,484.03603 L 161.75308,483.93893 z M 187.47481,491.60692 L 186.40712,491.70402 L 186.98950,491.99521 L 187.47481,491.60696 z M 160.68539,482.19179 L 159.90888,485.10369 L 162.33546,485.49194 L 165.53855,488.79209 L 167.47981,487.91852 L 160.68539,482.19179 z M 177.67144,483.35655 L 177.67144,483.16243 L 177.67144,483.25953 L 177.67144,483.35663 z M 172.81828,473.06786 L 172.62415,472.97076 L 172.72125,473.06786 L 172.81835,473.06786 z M 175.63311,474.03849 L 175.92430,473.94139 L 175.82720,473.94139 L 175.63307,474.03849 z M 177.57437,473.45611 L 177.86556,473.45611 L 178.73913,473.06786 L 177.57437,473.45611 z M 181.06865,472.38842 L 181.26277,472.19429 L 180.97158,472.38842 L 181.06868,472.38842 z M 181.55396,472.29132 L 182.13634,472.00013 L 181.65102,472.09723 L 181.55392,472.29136 z M 183.00991,471.70894 L 182.52459,471.80604 L 182.52459,471.90314 L 183.00991,471.70902 z M 245.32443,454.14048 L 244.93618,453.84929 L 244.25674,453.55810 L 245.32443,454.14048 z M 194.46336,452.00509 L 195.33692,450.84034 L 194.85161,451.22859 L 194.46336,452.00509 z M 195.62811,450.64621 L 196.01637,450.06383 L 195.82224,450.25796 L 195.62811,450.64621 z M 196.21049,449.86971 L 196.88993,449.28733 L 196.50168,449.48145 L 196.21049,449.86971 z M 226.78537,450.06383 L 227.27069,450.54915 L 227.56188,450.54915 L 226.78537,450.06383 z M 211.15821,443.65767 L 207.17862,446.95781 L 204.75205,446.27837 L 199.12239,449.48145 L 198.05469,448.80201 L 191.64853,455.98468 L 185.14530,457.44063 L 185.72767,460.93490 L 188.63957,464.91449 L 194.07510,470.15590 L 193.20154,472.19422 L 197.27819,473.94136 L 195.14280,474.32961 L 192.52209,472.29129 L 193.88098,475.30024 L 192.13384,476.36794 L 186.60124,471.32066 L 182.23340,472.09716 L 174.75954,474.91199 L 178.15675,478.69745 L 177.67144,481.02697 L 179.90389,483.74473 L 187.28068,486.65663 L 192.61916,483.93886 L 193.49272,485.97719 L 192.03678,492.09216 L 187.57187,492.09216 L 182.33047,494.42168 L 182.03928,492.77160 L 179.32151,493.83930 L 178.05969,496.65413 L 173.59478,500.05134 L 173.59478,505.00156 L 175.34192,505.77806 L 173.98304,509.95178 L 179.80682,514.99906 L 183.49522,513.44605 L 182.71872,519.65809 L 183.78641,521.01697 L 188.25132,521.98760 L 189.90139,523.83180 L 193.78391,524.12299 L 195.62811,526.06426 L 199.60770,524.89950 L 197.76350,527.42314 L 196.30755,532.56748 L 184.46585,540.23547 L 182.91284,541.78848 L 180.68039,540.91491 L 177.08906,541.78848 L 171.94471,545.18569 L 180.00095,542.85617 L 181.16571,544.60331 L 191.55146,541.20610 L 191.84265,542.56499 L 195.91930,538.48833 L 204.46086,532.56748 L 205.14030,532.95574 L 212.61416,527.03489 L 210.67290,524.70537 L 213.19654,520.53166 L 219.79683,512.66954 L 224.84411,511.69891 L 226.39712,512.76661 L 220.28215,514.51374 L 218.63207,521.01697 L 218.82620,524.51125 L 220.96159,524.31712 L 231.25028,518.10508 L 232.02678,515.77556 L 231.15322,512.18423 L 234.25923,512.96073 L 236.49169,511.50479 L 242.89785,515.38731 L 242.41254,516.45501 L 256.97200,518.29921 L 260.36921,517.23151 L 261.33985,518.68746 L 273.95805,524.70537 L 276.09344,523.44355 L 276.28757,516.16382 L 277.93764,519.46396 L 286.09094,525.38481 L 286.77038,527.81139 L 293.85599,531.79098 L 295.70019,536.93532 L 297.44733,532.95574 L 301.03866,539.94428 L 303.46524,535.96469 L 301.52398,531.01447 L 294.05012,530.23797 L 282.59667,519.26984 L 276.38463,514.70787 L 271.62854,519.36690 L 268.81371,519.36690 L 262.31048,515.09612 L 255.90431,514.80493 L 246.78038,457.24650 L 245.22737,454.52874 L 241.53897,452.29628 L 236.00637,453.36398 L 231.73559,452.49041 L 226.30006,450.35502 L 220.57333,450.74327 L 219.11739,448.02551 L 214.55542,447.34606 L 213.77892,445.69599 L 211.74059,448.02551 L 211.15821,443.65767 z"
     style="stroke-width:0.97063118000000004;fill:#f9f9f9" />
</svg>
